<svg aria-hidden="true" style="position: absolute; width: 0; height: 0; overflow: hidden;" version="1.1" xmlns="http://www.w3.org/2000/svg" xmlns:xlink="http://www.w3.org/1999/xlink">
<defs>
<symbol id="icon-pin-1" viewBox="0 0 32 32">
<title>pin-1</title>
<path d="M16.333 32c-0.469 0-0.869-0.32-0.975-0.777-0.373-1.629-1.621-6.157-2.907-7.531-0.357-0.381-0.729-0.765-1.108-1.155-2.817-2.903-6.011-6.193-6.011-11.537 0-6.065 4.935-11 11-11s11 4.935 11 11c0 5.336-3.187 8.623-5.999 11.521-0.388 0.401-0.759 0.781-1.113 1.161-1.291 1.38-2.541 5.911-2.915 7.54-0.104 0.457-0.504 0.777-0.973 0.777zM16.333 2c-4.963 0-9 4.037-9 9 0 4.533 2.768 7.385 5.445 10.144 0.395 0.407 0.772 0.795 1.133 1.181 0.964 1.031 1.797 3.057 2.421 4.972 0.625-1.916 1.461-3.947 2.427-4.98 0.363-0.389 0.741-0.779 1.125-1.176 2.685-2.767 5.448-5.616 5.448-10.141 0-4.963-4.037-9-9-9z"></path>
<path d="M16.333 16c-2.757 0-5-2.243-5-5s2.243-5 5-5c2.757 0 5 2.243 5 5s-2.243 5-5 5zM16.333 8c-1.655 0-3 1.345-3 3s1.345 3 3 3c1.655 0 3-1.345 3-3s-1.345-3-3-3z"></path>
</symbol>
<symbol id="icon-style-three-pin-check--2" viewBox="0 0 32 32">
<title>style-three-pin-check--2</title>
<path d="M16 0c-7.72 0-14 5.683-14 12.667 0 7.663 9.733 16.38 12.72 18.869 0.344 0.289 0.792 0.464 1.281 0.464s0.936-0.175 1.284-0.466l-0.003 0.003c2.985-2.491 12.719-11.208 12.719-18.869 0-6.984-6.28-12.667-14-12.667zM24.943 9.609l-10.667 10.667c-0.241 0.241-0.575 0.39-0.943 0.39s-0.701-0.149-0.943-0.39l-4-4c-0.232-0.24-0.374-0.566-0.374-0.926 0-0.736 0.597-1.333 1.333-1.333 0.36 0 0.687 0.143 0.927 0.375l2.585 2.585c0.121 0.121 0.288 0.196 0.472 0.196s0.351-0.075 0.472-0.196v0l9.252-9.252c0.243-0.251 0.583-0.407 0.959-0.407 0.736 0 1.333 0.597 1.333 1.333 0 0.376-0.156 0.716-0.407 0.959l-0 0z"></path>
</symbol>
<symbol id="icon-pin--3" viewBox="0 0 32 32">
<title>pin--3</title>
<path d="M16 0c-5.888 0.007-10.66 4.778-10.667 10.666v0.001c0 4.68 6.667 16.033 9.531 20.699 0.239 0.383 0.658 0.635 1.136 0.635 0 0 0 0 0 0h-0c0.002 0 0.004 0 0.006 0 0.476 0 0.894-0.252 1.126-0.63l0.003-0.006c2.864-4.663 9.531-16.012 9.531-20.697-0.007-5.888-4.778-10.66-10.666-10.667h-0.001zM16 15.333c-2.577 0-4.667-2.089-4.667-4.667s2.089-4.667 4.667-4.667c2.577 0 4.667 2.089 4.667 4.667v0c0 2.577-2.089 4.667-4.667 4.667v0z"></path>
</symbol>
<symbol id="icon-pin--2" viewBox="0 0 32 32">
<title>pin--2</title>
<path d="M15.999 31.721c-0.253 0-0.501-0.073-0.717-0.211-0.164-0.105-0.3-0.241-0.404-0.404-2.239-3.5-9.544-15.295-9.544-20.16 0-5.881 4.785-10.667 10.667-10.667s10.667 4.785 10.667 10.667c0 4.725-6.675 15.672-9.544 20.16-0.193 0.3-0.491 0.508-0.839 0.584-0.092 0.020-0.189 0.031-0.285 0.031zM16 1.613c-5.147 0-9.333 4.187-9.333 9.333 0 4.501 7.144 16.019 9.333 19.44 2.189-3.423 9.333-14.943 9.333-19.44 0-5.145-4.187-9.333-9.333-9.333z"></path>
<path d="M16 15.613c-2.573 0-4.667-2.093-4.667-4.667s2.093-4.667 4.667-4.667 4.667 2.093 4.667 4.667-2.093 4.667-4.667 4.667zM16 7.613c-1.839 0-3.333 1.495-3.333 3.333s1.495 3.333 3.333 3.333c1.837 0 3.333-1.495 3.333-3.333s-1.496-3.333-3.333-3.333z"></path>
</symbol>
<symbol id="icon-style-three-pin-check" viewBox="0 0 32 32">
<title>style-three-pin-check</title>
<path d="M16 32c-0.156 0-0.308-0.055-0.428-0.155-3.619-3.021-6.98-6.393-9.988-10.023-2.787-3.349-4.040-7.473-3.436-11.315 0.524-3.335 2.423-6.192 5.345-8.044 2.541-1.612 5.476-2.464 8.484-2.464l0.035 0.333v-0.333c3.019 0 5.952 0.852 8.493 2.464 2.924 1.853 4.823 4.711 5.347 8.045 0.603 3.841-0.651 7.964-3.437 11.313-3.008 3.628-6.368 7-9.988 10.023-0.119 0.1-0.271 0.155-0.427 0.155zM15.977 1.333c-2.756 0-5.443 0.78-7.769 2.256-2.595 1.645-4.279 4.175-4.743 7.125-0.544 3.463 0.603 7.2 3.144 10.255 2.837 3.423 5.996 6.615 9.391 9.492 3.393-2.876 6.552-6.068 9.389-9.492 2.543-3.056 3.689-6.793 3.145-10.255-0.464-2.951-2.148-5.481-4.743-7.127-2.323-1.472-5.004-2.252-7.755-2.255-0.011 0.001-0.021 0.001-0.029 0.001-0.011 0-0.031-0.001-0.031-0.001z"></path>
<path d="M13.333 19.997c-0.179 0-0.345-0.069-0.472-0.195l-4-4c-0.125-0.127-0.195-0.293-0.195-0.472s0.069-0.345 0.195-0.472 0.295-0.195 0.472-0.195 0.345 0.069 0.472 0.195l3.528 3.529 10.195-10.195c0.127-0.127 0.293-0.196 0.472-0.196s0.345 0.069 0.472 0.195 0.195 0.295 0.195 0.472-0.069 0.345-0.195 0.472l-10.667 10.667c-0.127 0.125-0.293 0.195-0.472 0.195z"></path>
</symbol>
<symbol id="icon-pin" viewBox="0 0 32 32">
<title>pin</title>
<path d="M16 17c-3.308 0-6-2.692-6-6s2.692-6 6-6c3.308 0 6 2.692 6 6s-2.692 6-6 6zM16 7c-2.205 0-4 1.795-4 4s1.795 4 4 4c2.205 0 4-1.795 4-4s-1.795-4-4-4z"></path>
<path d="M15.997 32.001c-0.392 0-0.773-0.116-1.103-0.333-0.224-0.148-0.412-0.337-0.561-0.561-0.936-1.409-3.264-5.155-5.385-9.233-2.62-5.040-3.948-8.697-3.948-10.873 0-6.065 4.935-11 11-11s11 4.935 11 11c0 2.175-1.328 5.833-3.948 10.873-2.12 4.077-4.449 7.823-5.385 9.233-0.295 0.445-0.747 0.749-1.269 0.855-0.132 0.027-0.267 0.040-0.4 0.040zM16 2c-4.963 0-9 4.037-9 9 0 3.84 5.861 14.269 9 19 3.139-4.731 9-15.161 9-19 0-4.961-4.037-9-9-9z"></path>
</symbol>
<symbol id="icon-pin-location-1" viewBox="0 0 32 32">
<title>pin-location-1</title>
<path d="M16 15c-2.757 0-5-2.243-5-5s2.243-5 5-5c2.757 0 5 2.243 5 5s-2.243 5-5 5zM16 7c-1.655 0-3 1.345-3 3s1.345 3 3 3c1.655 0 3-1.345 3-3s-1.345-3-3-3z"></path>
<path d="M15.997 27.655c-0.32 0-0.627-0.101-0.887-0.292-0.125-0.092-0.233-0.201-0.324-0.324-7.931-10.923-8.787-15.555-8.787-17.039 0-5.513 4.487-10 10-10s10 4.487 10 10c0 4.58-6.724 14.197-8.785 17.036-0.239 0.327-0.589 0.54-0.987 0.6-0.076 0.013-0.153 0.019-0.231 0.019zM16 2c-4.411 0-8 3.589-8 8 0 3.055 4.219 10.019 8 15.3 3.78-5.281 8-12.245 8-15.3 0-4.411-3.589-8-8-8z"></path>
<path d="M16 32c-3.675 0-7.327-0.427-10.019-1.172-3.259-0.901-4.981-2.225-4.981-3.828 0-2.404 3.7-3.645 6.804-4.264 0.061-0.013 0.131-0.020 0.199-0.020 0.473 0 0.884 0.339 0.977 0.805 0.052 0.263 0 0.529-0.149 0.751-0.148 0.223-0.375 0.373-0.636 0.425-3.887 0.775-5.195 1.905-5.195 2.303 0 0.235 0.62 1.080 3.375 1.867 2.557 0.731 5.975 1.133 9.625 1.133s7.068-0.403 9.625-1.133c2.755-0.787 3.375-1.632 3.375-1.867 0-0.399-1.315-1.533-5.223-2.307-0.263-0.052-0.488-0.203-0.637-0.425s-0.201-0.488-0.151-0.751c0.092-0.467 0.505-0.805 0.981-0.805 0.064 0 0.129 0.007 0.195 0.020 3.117 0.617 6.833 1.859 6.833 4.269 0 1.603-1.723 2.927-4.981 3.828-2.691 0.744-6.343 1.171-10.017 1.171z"></path>
</symbol>
<symbol id="icon-earth-pin-1" viewBox="0 0 32 32">
<title>earth-pin-1</title>
<path d="M16.003 31.637c-0.481 0-0.927-0.26-1.163-0.679-0.288-0.511-0.552-0.983-0.795-1.419-1.892-3.388-2.529-4.529-4.367-5.589-3.919-2.256-6.351-6.468-6.345-10.989 0.008-6.977 5.689-12.653 12.667-12.653 3.397 0.004 6.577 1.325 8.967 3.72s3.704 5.577 3.7 8.96c0 4.515-2.431 8.716-6.345 10.964-1.833 1.059-2.472 2.2-4.363 5.587-0.244 0.436-0.507 0.909-0.796 1.42-0.12 0.213-0.296 0.388-0.508 0.507-0.197 0.112-0.424 0.172-0.652 0.172zM16 1.641c-6.243 0-11.327 5.079-11.333 11.321-0.004 4.047 2.171 7.813 5.677 9.833 2.157 1.244 2.895 2.565 4.865 6.095 0.243 0.435 0.505 0.905 0.792 1.415 0.272-0.484 0.523-0.931 0.755-1.347l0.039-0.068c1.971-3.529 2.708-4.849 4.861-6.092 3.503-2.012 5.679-5.771 5.677-9.809 0.003-3.028-1.172-5.875-3.311-8.019-2.137-2.143-4.983-3.325-8.009-3.328l-0.013-0.335v0.333z"></path>
<path d="M16 21.655c-2.747 0-5.359-1.328-6.991-3.552-0.021-0.025-0.036-0.048-0.043-0.060-1.068-1.481-1.633-3.231-1.633-5.055 0-1.244 0.261-2.448 0.777-3.581 0-0.004 0.013-0.033 0.029-0.063 1.408-3.044 4.496-5.023 7.86-5.023 2.1 0 4.128 0.765 5.712 2.156 0.015 0.011 0.037 0.029 0.060 0.052 1.84 1.647 2.896 4 2.896 6.459-0.001 4.779-3.889 8.667-8.668 8.667zM10.975 18.321c1.356 1.279 3.149 2 5.025 2 3.047 0 5.736-1.857 6.831-4.667h-0.164c-1.471 0-2.667-1.196-2.667-2.667 0-0.368-0.299-0.667-0.667-0.667-1.103 0-2-0.897-2-2-0.012-1.053 0.389-2.052 1.131-2.808 0.355-0.363 0.775-0.652 1.235-0.855-1.121-0.659-2.387-1.004-3.699-1.004-2.488 0-4.793 1.264-6.144 3.333h0.144c1.471 0 2.667 1.196 2.667 2.667 0 0.368 0.299 0.667 0.667 0.667 1.103 0 2 0.897 2 2 0 2.205-1.795 4-4 4h-0.359zM11.333 16.988c1.471 0 2.667-1.196 2.667-2.667 0-0.368-0.299-0.667-0.667-0.667-1.103 0-2-0.897-2-2 0-0.735-0.599-1.333-1.333-1.333h-0.831c-0.333 0.849-0.503 1.745-0.503 2.667 0 1.428 0.411 2.808 1.191 4h1.476zM21.047 7.672c-1.36 0.139-2.395 1.273-2.38 2.641 0 0.373 0.299 0.673 0.667 0.673 1.103 0 2 0.897 2 2 0 0.735 0.597 1.333 1.333 1.333h0.543c0.083-0.443 0.124-0.889 0.124-1.333 0-2.003-0.832-3.932-2.287-5.315z"></path>
</symbol>
<symbol id="icon-social-pinterest" viewBox="0 0 32 32">
<title>social-pinterest</title>
<path d="M9.507 29.813c0.031 0.212 0.183 0.383 0.383 0.439l0.004 0.001h0.147c0.2-0.007 0.374-0.11 0.479-0.265l0.001-0.002c1.234-1.515 2.226-3.287 2.884-5.213l0.036-0.12c0.12-0.44 0.52-2.027 0.813-3.16 0.039-0.144 0.168-0.249 0.322-0.249 0.080 0 0.154 0.028 0.212 0.076l-0.001-0c0.919 0.727 2.094 1.169 3.372 1.173h0.001c5.2 0 8.973-4.76 8.973-11.307 0-4.68-3.92-9.507-10.48-9.507-7.32 0.040-11.787 5.293-11.787 10.32 0 3.133 1.333 5.533 3.493 6.427 0.113 0.057 0.247 0.090 0.389 0.090 0.428 0 0.785-0.306 0.864-0.712l0.001-0.006 0.32-1.333c0.045-0.115 0.070-0.247 0.070-0.386 0-0.323-0.14-0.613-0.363-0.813l-0.001-0.001c-0.609-0.74-0.978-1.698-0.978-2.742 0-0.067 0.002-0.134 0.005-0.201l-0 0.009c-0-0.013-0-0.029-0-0.045 0-4.028 3.265-7.293 7.293-7.293 0.094 0 0.187 0.002 0.28 0.005l-0.013-0c3.907 0 6.333 2.227 6.333 5.813 0 4.667-2.040 8.187-4.747 8.187-0.037 0.002-0.080 0.003-0.123 0.003-0.667 0-1.267-0.283-1.689-0.735l-0.001-0.001c-0.277-0.353-0.445-0.805-0.445-1.295 0-0.194 0.026-0.382 0.075-0.56l-0.003 0.015c0.173-0.72 0.4-1.467 0.627-2.2 0.392-1.044 0.667-2.253 0.77-3.511l0.003-0.049c0.006-0.064 0.009-0.139 0.009-0.214 0-1.355-1.098-2.453-2.453-2.453-0.022 0-0.044 0-0.066 0.001l0.003-0c-1.92 0-3.413 1.907-3.413 4.413 0 0.003 0 0.006 0 0.009 0 0.854 0.156 1.671 0.442 2.425l-0.016-0.047c0.018 0.058 0.029 0.124 0.029 0.193s-0.010 0.136-0.030 0.198l0.001-0.005-1.973 8.413c-0.191 0.979-0.3 2.106-0.3 3.257 0 1.044 0.090 2.067 0.262 3.062l-0.015-0.106z"></path>
</symbol>
<symbol id="icon-social-instagram--2" viewBox="0 0 32 32">
<title>social-instagram--2</title>
<path d="M8.987 32h14c0 0 0 0 0 0 4.973 0 9.006-4.028 9.013-8.999v-14.001c-0.008-4.972-4.040-9-9.013-9 0 0 0 0-0 0h-14c-4.962 0.015-8.979 4.037-8.987 8.999v14.001c0.008 4.963 4.025 8.985 8.985 9h0.001zM1.987 9c0.008-3.863 3.137-6.992 6.999-7h14.001c3.863 0.008 6.992 3.137 7 6.999v14.001c-0.008 3.863-3.137 6.992-6.999 7h-14.001c-3.863-0.008-6.992-3.137-7-6.999v-0.001z"></path>
<path d="M16 23.667c4.228-0.008 7.653-3.437 7.653-7.667 0-4.234-3.432-7.667-7.667-7.667s-7.667 3.432-7.667 7.667v0c0.008 4.236 3.443 7.667 7.68 7.667 0 0 0 0 0 0v0zM16 10.333c3.124 0.008 5.653 2.542 5.653 5.667 0 3.13-2.537 5.667-5.667 5.667s-5.667-2.537-5.667-5.667v0c0.008-3.131 2.548-5.667 5.68-5.667 0 0 0 0 0 0v0z"></path>
<path d="M26.787 6.867c0 0.92-0.746 1.667-1.667 1.667s-1.667-0.746-1.667-1.667c0-0.92 0.746-1.667 1.667-1.667s1.667 0.746 1.667 1.667z"></path>
</symbol>
<symbol id="icon-social-media-facebook--2" viewBox="0 0 32 32">
<title>social-media-facebook--2</title>
<path d="M11.333 32c-0.368 0-0.667-0.299-0.667-0.667v-15.333h-3.333c-0.368 0-0.667-0.299-0.667-0.667v-5.333c0-0.368 0.299-0.667 0.667-0.667h3.333v-2.193c0-0.892 0.136-2.62 1.043-4.171 1.155-1.971 3.123-2.969 5.852-2.969h5.772c0.367 0 0.667 0.299 0.667 0.667v5.347c0 0.179-0.069 0.347-0.196 0.472s-0.293 0.195-0.471 0.195c-0.003 0-3.427-0.013-3.984-0.013l-0.063-0.001c-0.031 0-0.059 0.001-0.085 0.005-0.167 0.023-0.316 0.108-0.417 0.241-0.103 0.133-0.147 0.299-0.124 0.465 0.004 0.031 0.007 0.060 0.007 0.089v1.867h5.024c0.189 0 0.369 0.080 0.496 0.22s0.188 0.328 0.167 0.516l-0.556 5.332c-0.035 0.341-0.32 0.599-0.663 0.599h-4.468v15.333c0 0.368-0.299 0.667-0.667 0.667h-6.667zM17.333 30.667v-15.333c0-0.368 0.299-0.667 0.667-0.667h4.533l0.417-4h-4.951c-0.368 0-0.667-0.299-0.667-0.667v-2.493c-0.055-0.503 0.084-1 0.391-1.403 0.319-0.416 0.779-0.684 1.299-0.755 0.087-0.012 0.176-0.017 0.264-0.017 0.031 0 0.063 0 0.093 0.003h0.112c0.543 0 2.071 0.007 3.028 0.009h0.145v-4.011h-5.105c-2.076 0-5.56 0.755-5.56 5.807v2.86c0 0.368-0.299 0.667-0.667 0.667h-3.333v4h3.333c0.368 0 0.667 0.299 0.667 0.667v15.333h5.333z"></path>
</symbol>
<symbol id="icon-style-two-pin-marker" viewBox="0 0 32 32">
<title>style-two-pin-marker</title>
<path d="M16 31.916c-0.293 0-0.581-0.099-0.813-0.277-1.979-1.524-11.853-9.563-11.853-18.221 0-7.601 5.445-13.333 12.667-13.333s12.667 5.732 12.667 13.333c0 8.657-9.875 16.697-11.853 18.221-0.232 0.179-0.521 0.277-0.813 0.277zM16 1.417c-6.461 0-11.333 5.159-11.333 12 0 8.033 9.441 15.708 11.333 17.165 1.892-1.457 11.333-9.133 11.333-17.165 0-6.841-4.872-12-11.333-12z"></path>
<path d="M16 20.084c-4.044 0-7.333-3.289-7.333-7.333s3.289-7.333 7.333-7.333 7.333 3.289 7.333 7.333c0 4.044-3.289 7.333-7.333 7.333zM16 6.751c-3.308 0-6 2.692-6 6s2.692 6 6 6c3.308 0 6-2.692 6-6s-2.692-6-6-6z"></path>
</symbol>
<symbol id="icon-style-two-pin-marker--3" viewBox="0 0 32 32">
<title>style-two-pin-marker--3</title>
<path d="M16 20.004c-3.86 0-7-3.14-7-7s3.14-7 7-7c3.86 0 7 3.14 7 7s-3.14 7-7 7zM16 8.004c-2.757 0-5 2.243-5 5s2.243 5 5 5c2.757 0 5-2.243 5-5s-2.243-5-5-5z"></path>
<path d="M15.999 31.868c-0.348 0-0.691-0.091-0.991-0.263-1.167-0.667-4.168-2.548-6.856-5.612-3.419-3.896-5.152-8.267-5.152-12.991 0-7.168 5.832-13 13-13s13 5.832 13 13c0 4.725-1.733 9.096-5.153 12.992-2.689 3.065-5.691 4.944-6.856 5.611-0.3 0.172-0.644 0.263-0.992 0.263zM16 2.004c-6.065 0-11 4.935-11 11 0 2.481 0.793 11.029 11 16.865 10.207-5.829 11-14.383 11-16.865 0-6.065-4.935-11-11-11z"></path>
</symbol>
<symbol id="icon-style-two-pin-marker--2" viewBox="0 0 32 32">
<title>style-two-pin-marker--2</title>
<path d="M16 0c-6.992 0.008-12.658 5.674-12.667 12.666v0.001c0 8.729 8.717 16.651 11.388 18.871 0.344 0.287 0.791 0.462 1.278 0.462s0.934-0.174 1.281-0.464l-0.003 0.003c2.667-2.22 11.389-10.144 11.389-18.872-0.009-6.992-5.675-12.657-12.666-12.665h-0.001zM16 19.333c-3.682 0-6.667-2.985-6.667-6.667s2.985-6.667 6.667-6.667c3.682 0 6.667 2.985 6.667 6.667v0c0 3.682-2.985 6.667-6.667 6.667v0z"></path>
</symbol>
<symbol id="icon-social-video-youtube" viewBox="0 0 32 32">
<title>social-video-youtube</title>
<path d="M7.867 6.827v5.68c0 0.552 0.448 1 1 1s1-0.448 1-1v0-5.68l3.8-5.067c0.121-0.166 0.194-0.375 0.194-0.6 0-0.567-0.46-1.027-1.027-1.027-0.342 0-0.645 0.167-0.831 0.424l-0.002 0.003-3.2 4.267-3.133-4.267c-0.184-0.244-0.474-0.4-0.8-0.4-0.552 0-1 0.448-1 1 0 0.226 0.075 0.435 0.202 0.603l-0.002-0.002z"></path>
<path d="M12.6 6.507v4c0 1.657 1.343 3 3 3s3-1.343 3-3v0-4c0-1.657-1.343-3-3-3s-3 1.343-3 3v0zM14.6 6.507c0-0.552 0.448-1 1-1s1 0.448 1 1v0 4c0 0.552-0.448 1-1 1s-1-0.448-1-1v0z"></path>
<path d="M21.080 12.427c0.659 0.659 1.569 1.067 2.574 1.067 0.004 0 0.009 0 0.013-0h-0.001c0.67-0.007 1.295-0.194 1.83-0.516l-0.016 0.009c0.171 0.302 0.488 0.503 0.853 0.507h0c0.552 0 1-0.448 1-1v0-8c0-0.552-0.448-1-1-1s-1 0.448-1 1v0 5.333c0 0.92-0.746 1.667-1.667 1.667v0 0c-0.92 0-1.667-0.746-1.667-1.667v-5.333c0-0.552-0.448-1-1-1s-1 0.448-1 1v0 5.333c0 0.004-0 0.008-0 0.012 0 1.012 0.413 1.928 1.080 2.587l0 0z"></path>
<path d="M24.667 23.16c0-0.368-0.298-0.667-0.667-0.667s-0.667 0.298-0.667 0.667v0 0.667h1.333z"></path>
<path d="M18.667 22.493c-0.368 0-0.667 0.298-0.667 0.667v0 2.667c0 0.368 0.298 0.667 0.667 0.667s0.667-0.298 0.667-0.667v0-2.667c0-0.368-0.298-0.667-0.667-0.667v0z"></path>
<path d="M25.333 15.827h-18.667c-3.314 0-6 2.686-6 6v0 4c0 3.314 2.686 6 6 6v0h18.667c3.314 0 6-2.686 6-6v0-4c0-3.314-2.686-6-6-6v0zM10.667 21.16h-2v5.973c0 0.368-0.298 0.667-0.667 0.667s-0.667-0.298-0.667-0.667v0-5.973h-2c-0.368 0-0.667-0.298-0.667-0.667s0.298-0.667 0.667-0.667v0h5.333c0.368 0 0.667 0.298 0.667 0.667s-0.298 0.667-0.667 0.667v0zM15.307 25.827v1.333c0 0.001 0 0.003 0 0.004 0 0.368-0.298 0.667-0.667 0.667-0.188 0-0.359-0.078-0.48-0.204l-0-0c-0.249 0.124-0.542 0.198-0.853 0.2h-0.001c-1.105 0-2-0.895-2-2v0-4c0-0.368 0.298-0.667 0.667-0.667s0.667 0.298 0.667 0.667v0 4c0 0.368 0.298 0.667 0.667 0.667s0.667-0.298 0.667-0.667v0-4c0-0.368 0.298-0.667 0.667-0.667s0.667 0.298 0.667 0.667v0zM20.64 25.827c0 1.105-0.895 2-2 2v0c-0.321-0.002-0.624-0.081-0.891-0.218l0.011 0.005c-0.119 0.11-0.278 0.178-0.453 0.178-0.365 0-0.662-0.294-0.667-0.657v-8c0-0.368 0.298-0.667 0.667-0.667s0.667 0.298 0.667 0.667v0 2.2c0.198-0.075 0.427-0.119 0.666-0.12h0.001c1.105 0 2 0.895 2 2v0zM24.093 27.827c-1.156-0.070-2.072-1-2.12-2.156l-0-0.004v-2.507c0-1.105 0.895-2 2-2s2 0.895 2 2v0 1.333c0 0.368-0.298 0.667-0.667 0.667v0h-1.973v0.507c0.045 0.424 0.368 0.761 0.781 0.826l0.005 0.001c0.307 0 0.787-0.133 0.787-0.493 0-0.368 0.298-0.667 0.667-0.667s0.667 0.298 0.667 0.667v0c-0.061 1.026-0.908 1.835-1.943 1.835-0.062 0-0.124-0.003-0.184-0.009l0.008 0.001z"></path>
</symbol>
<symbol id="icon-social-video-youtube-clip" viewBox="0 0 32 32">
<title>social-video-youtube-clip</title>
<path d="M26.747 4.667h-21.493c-2.901 0-5.253 2.352-5.253 5.253v0 12.16c0 2.901 2.352 5.253 5.253 5.253v0h21.493c2.901 0 5.253-2.352 5.253-5.253v0-12.16c0-2.901-2.352-5.253-5.253-5.253v0zM22.053 16l-9.027 5.813c-0.102 0.066-0.226 0.106-0.36 0.106-0.368 0-0.666-0.298-0.667-0.666v-11.547c0.001-0.368 0.299-0.666 0.667-0.666 0.134 0 0.258 0.039 0.363 0.107l-0.003-0.002 9.027 5.773c0.185 0.121 0.305 0.326 0.305 0.56s-0.12 0.439-0.302 0.558l-0.003 0.002z"></path>
</symbol>
<symbol id="icon-social-media-twitter" viewBox="0 0 32 32">
<title>social-media-twitter</title>
<path d="M31.093 8.587c0.147-0.123 0.241-0.307 0.241-0.513 0-0.312-0.214-0.573-0.503-0.646l-0.005-0.001-1.053-0.267c-0.292-0.075-0.505-0.336-0.505-0.647 0-0.104 0.024-0.203 0.067-0.291l-0.002 0.004 0.587-1.187c0.042-0.085 0.066-0.184 0.066-0.289 0-0.368-0.298-0.667-0.667-0.667-0.061 0-0.121 0.008-0.177 0.024l0.005-0.001-2.667 0.747c-0.056 0.017-0.12 0.027-0.187 0.027-0.151 0-0.29-0.050-0.402-0.135l0.002 0.001c-1.1-0.832-2.492-1.333-4-1.333v0c-3.682 0-6.667 2.985-6.667 6.667v0 0.48c0 0.001 0 0.002 0 0.002 0 0.17-0.127 0.31-0.292 0.331l-0.002 0c-3.747 0.44-7.333-1.467-11.2-5.92-0.125-0.137-0.304-0.223-0.504-0.223-0.063 0-0.123 0.008-0.181 0.024l0.005-0.001c-0.217 0.102-0.369 0.311-0.387 0.558l-0 0.002c-0.182 0.718-0.287 1.542-0.287 2.391 0 1.511 0.332 2.945 0.926 4.232l-0.026-0.063c0.023 0.044 0.036 0.095 0.036 0.15 0 0.184-0.149 0.333-0.333 0.333-0.017 0-0.034-0.001-0.051-0.004l0.002 0-1.493-0.293c-0.032-0.005-0.068-0.008-0.106-0.008-0.368 0-0.667 0.298-0.667 0.667 0 0.045 0.005 0.090 0.013 0.133l-0.001-0.004c0.246 2.13 1.435 3.939 3.132 5.023l0.028 0.017c0.112 0.055 0.188 0.169 0.188 0.3s-0.076 0.245-0.186 0.299l-0.002 0.001-0.707 0.28c-0.247 0.101-0.419 0.34-0.419 0.619 0 0.11 0.027 0.214 0.074 0.305l-0.002-0.004c0.797 1.714 2.357 2.957 4.231 3.301l0.036 0.005c0.129 0.048 0.22 0.17 0.22 0.313s-0.090 0.265-0.217 0.313l-0.002 0.001c-1.647 0.7-3.564 1.107-5.575 1.107-0.051 0-0.102-0-0.153-0.001l0.008 0c-0.040-0.008-0.086-0.013-0.133-0.013-0.375 0-0.68 0.304-0.68 0.68 0 0.328 0.233 0.602 0.542 0.666l0.004 0.001c3.174 1.541 6.893 2.48 10.822 2.573l0.032 0.001c0.076 0.001 0.166 0.002 0.256 0.002 3.372 0 6.512-0.995 9.142-2.708l-0.065 0.040c4.496-3.032 7.413-8.106 7.413-13.862 0-0.016-0-0.031-0-0.047v0.002-1.16c0.002-0.203 0.094-0.385 0.239-0.506l0.001-0.001z"></path>
</symbol>
<symbol id="icon-social-media-twitter-1" viewBox="0 0 32 32">
<title>social-media-twitter-1</title>
<path d="M28 27.333c0-2.577-2.089-4.667-4.667-4.667v0h-6.667c-1.841 0-3.333-1.492-3.333-3.333v0-2.667c0-0.368 0.298-0.667 0.667-0.667v0h9.333c2.577 0 4.667-2.089 4.667-4.667s-2.089-4.667-4.667-4.667v0h-9.333c-0.368 0-0.667-0.298-0.667-0.667v0-1.333c0-2.577-2.089-4.667-4.667-4.667s-4.667 2.089-4.667 4.667v0 16c0.008 6.256 5.077 11.326 11.333 11.333h8.001c2.577 0 4.667-2.089 4.667-4.667v0z"></path>
</symbol>
<symbol id="icon-social-media-facebook" viewBox="0 0 32 32">
<title>social-media-facebook</title>
<path d="M24.187 9.56c-0.121-0.137-0.297-0.224-0.493-0.227h-5.027v-1.88c0-0.373 0.080-0.8 0.68-0.8h4c0.007 0 0.016 0.001 0.025 0.001 0.176 0 0.334-0.077 0.441-0.2l0.001-0.001c0.113-0.117 0.184-0.277 0.187-0.453v-5.334c0-0.368-0.298-0.667-0.667-0.667v0h-5.773c-6.4 0-6.893 5.467-6.893 7.133v2.2h-3.333c-0.368 0-0.667 0.298-0.667 0.667v0 5.333c0 0.368 0.298 0.667 0.667 0.667v0h3.333v15.333c0 0.368 0.298 0.667 0.667 0.667v0h6.667c0.368 0 0.667-0.298 0.667-0.667v0-15.333h4.467c0.001 0 0.002 0 0.003 0 0.345 0 0.628-0.262 0.663-0.597l0-0.003 0.56-5.333c0.002-0.017 0.002-0.036 0.002-0.056 0-0.174-0.067-0.333-0.176-0.451l0 0z"></path>
</symbol>
<symbol id="icon-social-media-facebook-1" viewBox="0 0 32 32">
<title>social-media-facebook-1</title>
<path d="M26.067 19.413c-0.041 0.332-0.322 0.587-0.662 0.587-0.002 0-0.003 0-0.005-0h-2.733c-0.368 0-0.667 0.298-0.667 0.667v0 10.667c0 0.368 0.298 0.667 0.667 0.667v0h8c0.736 0 1.333-0.597 1.333-1.333v0-29.333c0-0.736-0.597-1.333-1.333-1.333v0h-29.333c-0.736 0-1.333 0.597-1.333 1.333v0 29.333c0 0.736 0.597 1.333 1.333 1.333v0h14.667c0.368 0 0.667-0.298 0.667-0.667v0-10.667c0-0.368-0.298-0.667-0.667-0.667v0h-2.667c-0.368 0-0.667-0.298-0.667-0.667v0-4c0-0.368 0.298-0.667 0.667-0.667v0h2.667c0.368 0 0.667-0.298 0.667-0.667v0-1.747c0-4.19 3.397-7.587 7.587-7.587v0h1.747c0.368 0 0.667 0.298 0.667 0.667v0 4c0 0.368-0.298 0.667-0.667 0.667v0h-1.747c-1.244 0-2.253 1.009-2.253 2.253v0 1.747c0 0.368 0.298 0.667 0.667 0.667v0h3.24c0.001 0 0.003-0 0.005-0 0.368 0 0.667 0.298 0.667 0.667 0 0.028-0.002 0.056-0.005 0.083l0-0.003z"></path>
</symbol>
<symbol id="icon-social-instagram" viewBox="0 0 32 32">
<title>social-instagram</title>
<path d="M23.333 0h-14.667c-4.783 0.008-8.659 3.883-8.667 8.666v14.667c0.008 4.783 3.883 8.659 8.666 8.667h14.667c4.783-0.008 8.659-3.883 8.667-8.666v-14.667c-0.008-4.783-3.883-8.659-8.666-8.667h-0.001zM16 23.333c-4.050 0-7.333-3.283-7.333-7.333s3.283-7.333 7.333-7.333c4.050 0 7.333 3.283 7.333 7.333v0c0 4.050-3.283 7.333-7.333 7.333v0zM24.667 8.667c-1.105 0-2-0.895-2-2s0.895-2 2-2c1.105 0 2 0.895 2 2v0c0 1.105-0.895 2-2 2v0z"></path>
</symbol>
<symbol id="icon-social-instagram-1" viewBox="0 0 32 32">
<title>social-instagram-1</title>
<path d="M24.093 15c-0.183 0.002-0.33 0.15-0.33 0.333 0 0.028 0.004 0.056 0.010 0.082l-0-0.002c0.148 0.576 0.233 1.237 0.233 1.918 0 4.418-3.582 8-8 8s-8-3.582-8-8c0-0.681 0.085-1.342 0.245-1.973l-0.012 0.055c0.006-0.024 0.010-0.052 0.010-0.080 0-0.183-0.147-0.331-0.33-0.333h-7.254c-0.368 0-0.667 0.298-0.667 0.667v0 7.667c0.008 4.783 3.883 8.659 8.666 8.667h14.667c4.783-0.008 8.659-3.883 8.667-8.666v-7.667c0-0.368-0.298-0.667-0.667-0.667v0z"></path>
<path d="M31.333 13c0.368 0 0.667-0.298 0.667-0.667v0-3.667c-0.008-4.783-3.883-8.659-8.666-8.667h-7.667c-0.368 0-0.667 0.298-0.667 0.667v0 5.333c0 0.552-0.448 1-1 1s-1-0.448-1-1v0-5.333c0-0.368-0.298-0.667-0.667-0.667v0h-0.667c-0.368 0-0.667 0.298-0.667 0.667v0 5.333c0 0.552-0.448 1-1 1s-1-0.448-1-1v0-5.333c0-0 0-0 0-0.001 0-0.368-0.298-0.667-0.667-0.667-0.009 0-0.019 0-0.028 0.001l0.001-0h-0.733c-0.326 0.047-0.573 0.325-0.573 0.66 0 0.002 0 0.005 0 0.007v-0 5.333c0 0.552-0.448 1-1 1s-1-0.448-1-1v0-4.667c-0.020-0.167-0.16-0.295-0.331-0.295-0.060 0-0.115 0.016-0.164 0.043l0.002-0.001c-2.701 1.499-4.5 4.332-4.507 7.586v3.668c0 0.368 0.298 0.667 0.667 0.667v0h8.267c0.001 0 0.002 0 0.004 0 0.223 0 0.421-0.11 0.542-0.278l0.001-0.002c1.468-2.052 3.843-3.374 6.527-3.374s5.059 1.322 6.51 3.35l0.016 0.024c0.122 0.17 0.32 0.28 0.543 0.28 0.001 0 0.003 0 0.004 0h-0zM23.333 6c0-0.736 0.597-1.333 1.333-1.333v0h1.333c0.736 0 1.333 0.597 1.333 1.333v0 1.333c0 0.736-0.597 1.333-1.333 1.333v0h-1.333c-0.736 0-1.333-0.597-1.333-1.333v0z"></path>
<path d="M20 17.333c0 2.209-1.791 4-4 4s-4-1.791-4-4c0-2.209 1.791-4 4-4s4 1.791 4 4z"></path>
</symbol>
<symbol id="icon-send-email-envelope" viewBox="0 0 32 32">
<title>send-email-envelope</title>
<path d="M5.333 9.333h-4c-0.736 0-1.333 0.597-1.333 1.333s0.597 1.333 1.333 1.333v0h4c0.736 0 1.333-0.597 1.333-1.333s-0.597-1.333-1.333-1.333v0z"></path>
<path d="M4 14.667h-2.667c-0.736 0-1.333 0.597-1.333 1.333s0.597 1.333 1.333 1.333v0h2.667c0.736 0 1.333-0.597 1.333-1.333s-0.597-1.333-1.333-1.333v0z"></path>
<path d="M2.996 20h-1.663c-0.736 0-1.333 0.597-1.333 1.333s0.597 1.333 1.333 1.333v0h1.663c0.736 0 1.333-0.597 1.333-1.333s-0.597-1.333-1.333-1.333v0z"></path>
<path d="M31.912 9.833c-0.021-0.008-0.045-0.013-0.071-0.013-0.051 0-0.098 0.020-0.132 0.052l0-0-11.103 9.744c-0.546 0.489-1.268 0.791-2.061 0.8l-0.002 0c-0.018 0-0.039 0.001-0.061 0.001-0.7 0-1.327-0.309-1.753-0.798l-0.002-0.003-8.173-9.749c-0.030-0.033-0.073-0.054-0.122-0.054-0.025 0-0.049 0.006-0.070 0.016l0.001-0c-0.069 0.030-0.119 0.091-0.133 0.165l-0 0.001-1.907 12c-0.023 0.103-0.036 0.222-0.036 0.343 0 0.918 0.744 1.663 1.663 1.663 0.017 0 0.035-0 0.052-0.001l-0.003 0h19.956c1.153-0.038 2.097-0.883 2.289-1.986l0.002-0.014 1.753-12c0.001-0.008 0.002-0.017 0.002-0.027 0-0.062-0.037-0.115-0.089-0.139l-0.001-0z"></path>
<path d="M17.948 18.556c0.225 0.227 0.537 0.367 0.881 0.367s0.656-0.14 0.881-0.367l0-0 11.033-9.685c0.12-0.104 0.196-0.256 0.196-0.426 0-0.030-0.002-0.059-0.007-0.088l0 0.003c-0.071-0.384-0.503-0.36-0.632-0.36h-19.776c-0.029-0.004-0.063-0.006-0.097-0.006-0.273 0-0.511 0.145-0.643 0.363l-0.002 0.003c-0.036 0.065-0.057 0.143-0.057 0.225 0 0.108 0.036 0.207 0.097 0.287l-0.001-0.001z"></path>
</symbol>
<symbol id="icon-send-email-envelope--2" viewBox="0 0 32 32">
<title>send-email-envelope--2</title>
<path d="M7.947 24.667c-0.533 0-1.036-0.209-1.413-0.588s-0.585-0.88-0.585-1.415c0-0.135 0.013-0.269 0.041-0.399l2.776-13.335c0.089-0.437 0.329-0.837 0.675-1.128 0.004-0.004 0.008-0.008 0.012-0.012 0.017-0.016 0.048-0.037 0.073-0.052 0.345-0.263 0.763-0.405 1.197-0.405h19.277c0.535 0 1.036 0.211 1.415 0.592 0.043 0.033 0.092 0.076 0.135 0.139 0.011 0.015 0.024 0.040 0.035 0.063 0.272 0.355 0.415 0.772 0.415 1.208 0 0.133-0.013 0.267-0.041 0.399l-2.771 13.336c-0.189 0.925-1.013 1.597-1.957 1.597h-19.283zM7.293 22.536c-0.008 0.041-0.013 0.085-0.013 0.131 0 0.177 0.069 0.344 0.195 0.471s0.295 0.196 0.472 0.196h19.281c0.312 0 0.584-0.221 0.651-0.525 0-0.003 2.764-13.297 2.764-13.297l-10.052 7.035c-0.559 0.392-1.219 0.599-1.908 0.599-0.929 0-1.82-0.387-2.447-1.061l-6.205-6.683-2.737 13.136zM17.213 15.177c0.376 0.404 0.912 0.636 1.469 0.636 0.413 0 0.808-0.124 1.143-0.359l9.699-6.788h-18.355l6.044 6.511z"></path>
<path d="M0.667 10c-0.368 0-0.667-0.299-0.667-0.667s0.299-0.667 0.667-0.667h5.333c0.368 0 0.667 0.299 0.667 0.667s-0.299 0.667-0.667 0.667h-5.333z"></path>
<path d="M0.667 14c-0.368 0-0.667-0.299-0.667-0.667s0.299-0.667 0.667-0.667h4c0.368 0 0.667 0.299 0.667 0.667s-0.299 0.667-0.667 0.667h-4z"></path>
<path d="M0.667 18c-0.368 0-0.667-0.299-0.667-0.667s0.299-0.667 0.667-0.667h2.667c0.368 0 0.667 0.299 0.667 0.667s-0.299 0.667-0.667 0.667h-2.667z"></path>
</symbol>
<symbol id="icon-professional-network-linkedin" viewBox="0 0 32 32">
<title>professional-network-linkedin</title>
<path d="M3.333 11.333h5.333c0.368 0 0.667 0.298 0.667 0.667v17.333c0 0.368-0.298 0.667-0.667 0.667h-5.333c-0.368 0-0.667-0.298-0.667-0.667v-17.333c0-0.368 0.298-0.667 0.667-0.667z"></path>
<path d="M9.28 5.333c0 1.841-1.48 3.333-3.307 3.333s-3.307-1.492-3.307-3.333c0-1.841 1.48-3.333 3.307-3.333s3.307 1.492 3.307 3.333z"></path>
<path d="M24.667 30h4c0.368 0 0.667-0.298 0.667-0.667v0-11.2c0-5.027-2.84-7.467-6.813-7.467-0.061-0.002-0.133-0.004-0.205-0.004-1.576 0-3.001 0.65-4.020 1.696l-0.001 0.001c-0.101 0.116-0.249 0.189-0.413 0.189-0.302 0-0.547-0.245-0.547-0.547 0-0.001 0-0.002 0-0.002v0c0-0.368-0.298-0.667-0.667-0.667v0h-4c-0.368 0-0.667 0.298-0.667 0.667v0 17.333c0 0.368 0.298 0.667 0.667 0.667v0h4c0.368 0 0.667-0.298 0.667-0.667v0-10c0-1.841 1.492-3.333 3.333-3.333s3.333 1.492 3.333 3.333v0 10c0 0.368 0.298 0.667 0.667 0.667v0z"></path>
</symbol>
<symbol id="icon-phone" viewBox="0 0 32 32">
<title>phone</title>
<path d="M24.7 31.324c-1.043 0-2.052-0.303-2.916-0.875-8.067-5.36-14.873-12.167-20.233-20.232-1.385-2.089-1.104-4.891 0.671-6.661l1.792-1.795c0.708-0.708 1.649-1.097 2.652-1.097s1.944 0.389 2.652 1.097l3.272 3.268c1.46 1.463 1.46 3.841 0.001 5.304l-0.663 0.664c2.744 3.279 5.795 6.331 9.073 9.076l0.661-0.661c0.716-0.712 1.655-1.099 2.652-1.099 1.003 0 1.944 0.391 2.652 1.099l3.272 3.272c1.461 1.463 1.46 3.841-0.001 5.303l-1.793 1.795c-0.996 0.995-2.325 1.543-3.744 1.543zM6.665 1.997c-0.647 0-1.253 0.251-1.709 0.707l-1.792 1.795c-1.327 1.324-1.537 3.419-0.501 4.98 5.26 7.917 11.941 14.599 19.859 19.859 0.645 0.428 1.399 0.653 2.18 0.653 1.061 0 2.057-0.409 2.803-1.153l1.793-1.793c0.943-0.943 0.943-2.475 0.001-3.417 0 0-3.272-3.272-3.272-3.272-0.456-0.456-1.063-0.708-1.708-0.708s-1.252 0.251-1.708 0.707l-1.092 1.092c-0.125 0.125-0.293 0.195-0.472 0.195-0.153 0-0.304-0.053-0.423-0.152-3.68-3.028-7.080-6.429-10.108-10.111-0.219-0.267-0.2-0.651 0.043-0.895l1.091-1.093c0.941-0.943 0.941-2.477 0-3.42l-3.273-3.265c-0.456-0.456-1.064-0.707-1.711-0.707z"></path>
</symbol>
<symbol id="icon-phone-retro" viewBox="0 0 32 32">
<title>phone-retro</title>
<path d="M18.667 18.38c0 1.473-1.194 2.667-2.667 2.667s-2.667-1.194-2.667-2.667c0-1.473 1.194-2.667 2.667-2.667s2.667 1.194 2.667 2.667z"></path>
<path d="M24.667 13.881c-2.682-0.003-4.901-1.983-5.278-4.56l-0.003-0.029c-0.020-0.157-0.147-0.279-0.306-0.291l-0.001-0c-0.92-0.050-1.996-0.079-3.079-0.079s-2.159 0.029-3.228 0.085l0.149-0.006c-0.159 0.011-0.287 0.133-0.306 0.289l-0 0.002c-0.381 2.607-2.599 4.586-5.281 4.589h-3.763c-0.572 1.421-0.904 3.070-0.904 4.795 0 1.145 0.146 2.255 0.421 3.314l-0.020-0.091c1.361 5.242 5.685 9.187 11.037 9.97l0.073 0.009c0.546 0.080 1.176 0.125 1.817 0.125 3.011 0 5.788-1.003 8.015-2.693l-0.033 0.024c0.081-0.063 0.133-0.16 0.133-0.27 0-0.094-0.038-0.179-0.1-0.241v0l-3.784-3.783c-0.186-0.181-0.301-0.434-0.301-0.714 0-0.551 0.447-0.998 0.998-0.998 0.271 0 0.517 0.108 0.697 0.284l5.676 5.674c0.178 0.166 0.418 0.268 0.682 0.268 0.552 0 1-0.448 1-1 0-0.264-0.102-0.504-0.269-0.682l0.001 0.001-1.699-1.699c1.455-2.094 2.325-4.69 2.325-7.489 0-1.729-0.332-3.381-0.935-4.894l0.031 0.089zM10.943 22.771c0.241 0.241 0.391 0.575 0.391 0.943 0 0.736-0.597 1.333-1.333 1.333s-1.333-0.597-1.333-1.333c0-0.368 0.149-0.702 0.391-0.943v0c0.241-0.241 0.575-0.39 0.943-0.39s0.701 0.149 0.943 0.39v0zM14.667 26.38c0-0.736 0.597-1.333 1.333-1.333s1.333 0.597 1.333 1.333c0 0.736-0.597 1.333-1.333 1.333v0c-0.736 0-1.333-0.597-1.333-1.333v0zM8 17.047c0.736 0 1.333 0.597 1.333 1.333s-0.597 1.333-1.333 1.333c-0.736 0-1.333-0.597-1.333-1.333v0c0-0.736 0.597-1.333 1.333-1.333v0zM16 22.38c-2.209 0-4-1.791-4-4s1.791-4 4-4c2.209 0 4 1.791 4 4v0c0 2.209-1.791 4-4 4v0zM24 17.047c0.736 0 1.333 0.597 1.333 1.333s-0.597 1.333-1.333 1.333c-0.736 0-1.333-0.597-1.333-1.333v0c0-0.736 0.597-1.333 1.333-1.333v0z"></path>
<path d="M28.133 1.228v0c-3.648-0.781-7.838-1.228-12.133-1.228s-8.486 0.447-12.528 1.298l0.395-0.069c-2.176 0.493-3.789 2.374-3.866 4.645l-0 0.008v2.667c0 1.841 1.492 3.333 3.333 3.333v0h4c1.841 0 3.333-1.492 3.333-3.333v0-1.081c0-0.177 0.135-0.322 0.308-0.337l0.001-0c1.505-0.133 3.256-0.209 5.024-0.209s3.519 0.076 5.249 0.225l-0.225-0.016c0.174 0.016 0.309 0.161 0.309 0.337v0 1.083c0 1.841 1.492 3.333 3.333 3.333v0h4c1.841 0 3.333-1.492 3.333-3.333v0-2.667c-0.078-2.28-1.691-4.162-3.834-4.648l-0.033-0.006z"></path>
</symbol>
<symbol id="icon-phone-retro--3" viewBox="0 0 32 32">
<title>phone-retro--3</title>
<path d="M24.667 11.936c-1.825-0.015-3.319-1.507-3.333-3.328v-1.399c-1.765-0.155-3.559-0.233-5.335-0.233s-3.568 0.079-5.332 0.233v1.392c-0.015 1.825-1.507 3.319-3.328 3.333h-4.005c-1.825-0.012-3.32-1.505-3.333-3.328v-2.671c0.079-2.261 1.665-4.169 3.857-4.651 4.015-0.82 8.099-1.235 12.145-1.235 4.044 0 8.125 0.415 12.132 1.233 2.201 0.484 3.788 2.387 3.865 4.629v2.691c-0.013 1.825-1.507 3.32-3.328 3.333-0.001 0-0.001 0-0.003 0h-4.003zM16 5.643c2.021 0 4.063 0.1 6.065 0.296 0.343 0.033 0.601 0.319 0.601 0.664v2c0.009 1.093 0.908 1.992 2.005 2h3.995c1.093-0.008 1.992-0.908 2-2.005v-2.661c-0.057-1.615-1.212-2.996-2.808-3.348-3.912-0.8-7.904-1.205-11.859-1.205-3.956 0-7.948 0.405-11.867 1.207-1.589 0.349-2.743 1.736-2.8 3.369v2.643c0.008 1.093 0.908 1.992 2.005 2h3.995c1.093-0.008 1.992-0.907 2-2.004v-1.995c0-0.344 0.259-0.629 0.601-0.664 2.003-0.196 4.044-0.296 6.065-0.296z"></path>
<path d="M15.999 31.936c-1.823 0-3.605-0.372-5.3-1.107-3.268-1.416-5.788-4.021-7.097-7.333-1.249-3.16-1.249-6.641 0-9.801 0.101-0.256 0.345-0.421 0.62-0.421 0.084 0 0.165 0.016 0.244 0.047 0.343 0.135 0.511 0.523 0.376 0.865-1.124 2.844-1.124 5.977 0 8.821 1.177 2.981 3.447 5.324 6.388 6.599 1.525 0.661 3.129 0.997 4.769 0.996 1.507 0 2.992-0.285 4.415-0.847 1.175-0.464 2.259-1.104 3.227-1.905l-3.111-3.111c-0.26-0.26-0.26-0.683 0-0.943 0.125-0.125 0.293-0.195 0.472-0.195s0.345 0.069 0.472 0.195l3.148 3.148c3.28-3.391 4.28-8.363 2.543-12.76-0.136-0.341 0.033-0.729 0.375-0.865 0.079-0.031 0.16-0.047 0.244-0.047 0.276 0 0.52 0.165 0.62 0.421 1.933 4.893 0.816 10.425-2.839 14.193l0.243 0.243c0.26 0.26 0.26 0.683 0 0.943-0.125 0.125-0.293 0.195-0.472 0.195s-0.345-0.069-0.472-0.195l-0.276-0.276c-1.1 0.927-2.337 1.665-3.684 2.197-1.579 0.625-3.228 0.943-4.904 0.943v0z"></path>
<path d="M16 22.603c-2.205 0-4-1.795-4-4s1.795-4 4-4c2.205 0 4 1.795 4 4s-1.795 4-4 4zM16 15.936c-1.471 0-2.667 1.196-2.667 2.667s1.196 2.667 2.667 2.667 2.667-1.196 2.667-2.667-1.196-2.667-2.667-2.667z"></path>
<path d="M17 10.603c0 0.552-0.448 1-1 1s-1-0.448-1-1c0-0.552 0.448-1 1-1s1 0.448 1 1z"></path>
<path d="M23 13.269c0 0.552-0.448 1-1 1s-1-0.448-1-1c0-0.552 0.448-1 1-1s1 0.448 1 1z"></path>
<path d="M25 18.603c0 0.552-0.448 1-1 1s-1-0.448-1-1c0-0.552 0.448-1 1-1s1 0.448 1 1z"></path>
<path d="M17 26.596c0 0.552-0.448 1-1 1s-1-0.448-1-1c0-0.552 0.448-1 1-1s1 0.448 1 1z"></path>
<path d="M11 23.929c0 0.552-0.448 1-1 1s-1-0.448-1-1c0-0.552 0.448-1 1-1s1 0.448 1 1z"></path>
<path d="M9 18.603c0 0.552-0.448 1-1 1s-1-0.448-1-1c0-0.552 0.448-1 1-1s1 0.448 1 1z"></path>
<path d="M11 13.269c0 0.552-0.448 1-1 1s-1-0.448-1-1c0-0.552 0.448-1 1-1s1 0.448 1 1z"></path>
</symbol>
<symbol id="icon-phone-retro--2" viewBox="0 0 32 32">
<title>phone-retro--2</title>
<path d="M15.975 32.025c-2.58 0-5.117-0.725-7.336-2.097-3.181-1.967-5.405-5.053-6.264-8.693-0.496-2.103-0.496-4.327 0-6.429 0.107-0.453 0.507-0.771 0.973-0.771 0.077 0 0.155 0.009 0.229 0.027 0.536 0.127 0.871 0.667 0.744 1.203-0.425 1.803-0.425 3.708 0 5.511 0.736 3.12 2.643 5.767 5.369 7.452 1.903 1.176 4.076 1.797 6.287 1.797 0.929 0 1.864-0.109 2.779-0.325 1.843-0.435 3.557-1.299 4.989-2.509l-3.452-3.453c-0.189-0.189-0.293-0.44-0.293-0.707s0.104-0.519 0.293-0.707 0.44-0.293 0.707-0.293 0.519 0.104 0.707 0.293l3.452 3.452c0.385-0.456 0.736-0.94 1.048-1.445 1.685-2.725 2.208-5.945 1.472-9.065-0.127-0.536 0.207-1.076 0.744-1.203 0.076-0.017 0.153-0.027 0.232-0.027 0.465 0 0.864 0.317 0.972 0.771 0.859 3.64 0.248 7.396-1.719 10.576-0.395 0.639-0.841 1.247-1.329 1.812l1.128 1.128c0.389 0.389 0.389 1.024 0 1.415-0.189 0.189-0.44 0.293-0.707 0.293s-0.519-0.104-0.707-0.293l-1.129-1.129c-1.697 1.471-3.744 2.517-5.948 3.039-1.068 0.252-2.157 0.38-3.241 0.38z"></path>
<path d="M24 12.029c-1.655 0-3-1.345-3-3 0-0.552-0.448-1-1-1h-8c-0.552 0-1 0.448-1 1 0 1.655-1.345 3-3 3h-5c-1.655 0-3-1.345-3-3v-1.187c-0.001-3.308 2.252-6.119 5.481-6.836 0.032-0.007 0.067-0.013 0.101-0.017 3.437-0.661 6.94-0.996 10.411-0.996 3.477 0 6.988 0.336 10.433 1.001 0.033 0.004 0.064 0.009 0.092 0.015 3.227 0.717 5.481 3.527 5.481 6.833v1.187c0 1.655-1.345 3-3 3h-5zM20 6.029c1.655 0 3 1.345 3 3 0 0.552 0.448 1 1 1h5c0.552 0 1-0.448 1-1v-1.187c0-2.339-1.585-4.336-3.859-4.868-0.016-0.003-0.032-0.005-0.047-0.008-3.335-0.645-6.735-0.973-10.101-0.973-3.363 0-6.757 0.327-10.091 0.971-0.015 0.004-0.031 0.007-0.047 0.009-2.272 0.532-3.857 2.532-3.856 4.869v1.187c0 0.552 0.448 1 1 1h5c0.552 0 1-0.448 1-1 0-1.655 1.345-3 3-3h8z"></path>
<path d="M16 22.029c-2.205 0-4-1.795-4-4s1.795-4 4-4c2.205 0 4 1.795 4 4 0 2.207-1.795 4-4 4zM16 16.029c-1.103 0-2 0.897-2 2s0.897 2 2 2 2-0.897 2-2-0.897-2-2-2z"></path>
<path d="M9.5 18.029c0 0.828-0.672 1.5-1.5 1.5s-1.5-0.672-1.5-1.5c0-0.828 0.672-1.5 1.5-1.5s1.5 0.672 1.5 1.5z"></path>
<path d="M16 27.529c-0.827 0-1.5-0.673-1.5-1.5 0-0.807 0.633-1.464 1.441-1.496 0.003-0.001 0.031-0.004 0.059-0.004 0.827 0 1.5 0.673 1.5 1.5s-0.673 1.5-1.5 1.5z"></path>
<path d="M10.343 25.187c-0.827 0-1.5-0.673-1.5-1.5s0.673-1.5 1.5-1.5c0.057 0 0.115 0.005 0.171 0.015 0.76 0.087 1.329 0.721 1.329 1.485 0 0.828-0.673 1.5-1.5 1.5z"></path>
<path d="M25.5 18.029c0 0.828-0.672 1.5-1.5 1.5s-1.5-0.672-1.5-1.5c0-0.828 0.672-1.5 1.5-1.5s1.5 0.672 1.5 1.5z"></path>
</symbol>
<symbol id="icon-phone-landline" viewBox="0 0 32 32">
<title>phone-landline</title>
<path d="M24.64 13.988c-1.861-0.152-3.315-1.723-3.307-3.576v-1.389c-1.764-0.156-3.557-0.235-5.333-0.235s-3.569 0.079-5.333 0.235v1.392c0.008 1.851-1.432 3.42-3.279 3.572l-4.055 0.003c-1.889-0.153-3.341-1.724-3.333-3.577v-2.664c0.088-2.252 1.68-4.112 3.873-4.535 4.001-0.817 8.081-1.231 12.125-1.231s8.127 0.415 12.132 1.232c2.189 0.423 3.781 2.277 3.869 4.508v2.693c0.008 1.851-1.432 3.42-3.279 3.572l-4.055 0.001c-0.009 0-0.019 0-0.027-0.001zM16 7.455c2.023 0 4.063 0.1 6.065 0.297 0.343 0.033 0.601 0.319 0.601 0.663v2c-0.005 1.163 0.897 2.148 2.055 2.244l3.945-0.003c1.115-0.095 2.005-1.077 2-2.239v-2.669c-0.063-1.589-1.212-2.92-2.793-3.225-3.925-0.801-7.917-1.207-11.873-1.207s-7.948 0.405-11.867 1.205c-1.587 0.307-2.737 1.644-2.8 3.253v2.64c-0.005 1.164 0.897 2.148 2.055 2.244l3.945-0.003c1.115-0.093 2.005-1.077 2-2.239v-2.003c0-0.344 0.259-0.629 0.601-0.664 2.003-0.196 4.043-0.296 6.065-0.296z"></path>
<path d="M8.667 29.989c-1.833-0.004-3.328-1.499-3.333-3.332v-10.668c0-0.368 0.299-0.667 0.667-0.667s0.667 0.299 0.667 0.667v10.667c0.003 1.1 0.901 1.997 2.001 2h14.665c1.1-0.003 1.997-0.901 2-2.001v-10.665c0-0.368 0.299-0.667 0.667-0.667s0.667 0.299 0.667 0.667v10.667c-0.004 1.833-1.499 3.329-3.332 3.333h-14.668z"></path>
<path d="M12 17.656c0 0.552-0.448 1-1 1s-1-0.448-1-1c0-0.552 0.448-1 1-1s1 0.448 1 1z"></path>
<path d="M17 17.656c0 0.552-0.448 1-1 1s-1-0.448-1-1c0-0.552 0.448-1 1-1s1 0.448 1 1z"></path>
<path d="M12 21.656c0 0.552-0.448 1-1 1s-1-0.448-1-1c0-0.552 0.448-1 1-1s1 0.448 1 1z"></path>
<path d="M17 21.656c0 0.552-0.448 1-1 1s-1-0.448-1-1c0-0.552 0.448-1 1-1s1 0.448 1 1z"></path>
<path d="M12 25.656c0 0.552-0.448 1-1 1s-1-0.448-1-1c0-0.552 0.448-1 1-1s1 0.448 1 1z"></path>
<path d="M22 17.656c0 0.552-0.448 1-1 1s-1-0.448-1-1c0-0.552 0.448-1 1-1s1 0.448 1 1z"></path>
<path d="M22 21.656c0 0.552-0.448 1-1 1s-1-0.448-1-1c0-0.552 0.448-1 1-1s1 0.448 1 1z"></path>
<path d="M22 25.656c0 0.552-0.448 1-1 1s-1-0.448-1-1c0-0.552 0.448-1 1-1s1 0.448 1 1z"></path>
<path d="M17 25.656c0 0.552-0.448 1-1 1s-1-0.448-1-1c0-0.552 0.448-1 1-1s1 0.448 1 1z"></path>
</symbol>
<symbol id="icon-phone-actions-ring" viewBox="0 0 32 32">
<title>phone-actions-ring</title>
<path d="M22.889 21.549c-0.603-0.603-1.436-0.976-2.357-0.976s-1.753 0.373-2.357 0.976l-0.513 0.513c-2.819-2.374-5.345-4.901-7.641-7.626l-0.077-0.094 0.515-0.512c0.601-0.604 0.973-1.437 0.973-2.357s-0.372-1.753-0.973-2.357l-2.831-2.829c-0.603-0.603-1.436-0.976-2.357-0.976s-1.753 0.373-2.357 0.976v0l-1.552 1.553c-0.84 0.845-1.359 2.010-1.359 3.296 0 0.957 0.287 1.846 0.78 2.587l-0.011-0.017c4.688 7 10.524 12.836 17.298 17.383l0.225 0.142c0.724 0.475 1.611 0.757 2.565 0.757 1.286 0 2.451-0.514 3.303-1.347l-0.001 0.001 1.553-1.552c0.603-0.603 0.976-1.436 0.976-2.357s-0.373-1.753-0.976-2.357v0z"></path>
<path d="M15.333 0.009c-0.736 0-1.333 0.597-1.333 1.333s0.597 1.333 1.333 1.333v0c7.728 0.009 13.991 6.272 14 13.999v0.001c0 0.736 0.597 1.333 1.333 1.333s1.333-0.597 1.333-1.333v0c-0.011-9.2-7.466-16.655-16.666-16.667h-0.001z"></path>
<path d="M15.333 8.009c4.784 0.006 8.661 3.883 8.667 8.666v0.001c0 0.736 0.597 1.333 1.333 1.333s1.333-0.597 1.333-1.333v0c-0.008-6.256-5.077-11.326-11.333-11.333h-0.001c-0.736 0-1.333 0.597-1.333 1.333s0.597 1.333 1.333 1.333v0z"></path>
<path d="M15.333 13.343c1.841 0 3.333 1.492 3.333 3.333v0c0 0.736 0.597 1.333 1.333 1.333s1.333-0.597 1.333-1.333v0c-0.004-3.312-2.688-5.996-6-6h-0c-0.736 0-1.333 0.597-1.333 1.333s0.597 1.333 1.333 1.333v0z"></path>
</symbol>
<symbol id="icon-phone-actions-ring--3" viewBox="0 0 32 32">
<title>phone-actions-ring--3</title>
<path d="M19.713 32.028c-1.329 0-2.632-0.383-3.768-1.105l-0.051-0.035c-5.853-3.955-10.837-8.939-14.8-14.803-0.008-0.012-0.031-0.048-0.039-0.063-1.764-2.769-1.368-6.347 0.971-8.685l0.84-0.839c0.565-0.565 1.319-0.876 2.12-0.876 0.803 0 1.556 0.312 2.121 0.877l3.536 3.535c0.567 0.567 0.879 1.32 0.877 2.123 0 0.803-0.312 1.556-0.879 2.121-0.389 0.389-0.389 1.024 0 1.413l5.656 5.657c0.188 0.188 0.439 0.292 0.707 0.292s0.519-0.104 0.707-0.292c0.567-0.567 1.32-0.877 2.123-0.877s1.556 0.312 2.121 0.877l3.527 3.525c0.577 0.577 0.889 1.331 0.889 2.132s-0.313 1.555-0.88 2.121l-0.837 0.839c-1.327 1.329-3.083 2.061-4.941 2.061v0zM4.988 7.621c-0.268 0-0.519 0.104-0.707 0.292l-0.841 0.84c-1.671 1.671-1.951 4.229-0.681 6.223 3.813 5.643 8.617 10.445 14.271 14.265 0.003 0.001 0.028 0.020 0.031 0.021 0.781 0.497 1.704 0.767 2.645 0.767 1.328 0 2.584-0.525 3.537-1.477l0.839-0.839c0.189-0.189 0.293-0.44 0.293-0.708 0-0.264-0.101-0.513-0.287-0.701l-3.544-3.541c-0.189-0.189-0.44-0.292-0.708-0.292s-0.519 0.104-0.707 0.292c-0.567 0.567-1.32 0.877-2.123 0.877-0.801 0-1.555-0.312-2.12-0.877l-5.656-5.657c-1.169-1.169-1.169-3.072 0-4.243 0.189-0.189 0.293-0.44 0.293-0.707s-0.104-0.519-0.292-0.708l-3.537-3.533c-0.188-0.189-0.44-0.293-0.707-0.293z"></path>
<path d="M20.976 18.016c-0.552 0-1-0.448-1-1 0-2.757-2.243-5-5-5-0.552 0-1-0.448-1-1s0.448-1 1-1c3.86 0 7 3.14 7 7 0 0.552-0.448 1-1 1z"></path>
<path d="M25.976 18.016c-0.552 0-1-0.448-1-1 0-5.513-4.487-10-10-10-0.552 0-1-0.448-1-1s0.448-1 1-1c6.617 0 12 5.383 12 12 0 0.552-0.448 1-1 1z"></path>
<path d="M30.976 18.016c-0.552 0-1-0.448-1-1 0-8.271-6.729-15-15-15-0.552 0-1-0.448-1-1s0.448-1 1-1c9.373 0 17 7.627 17 17 0 0.552-0.448 1-1 1z"></path>
</symbol>
<symbol id="icon-phone-actions-ring--2" viewBox="0 0 32 32">
<title>phone-actions-ring--2</title>
<path d="M20.873 31.985c-0.919 0-1.807-0.265-2.568-0.769-6.985-4.641-12.88-10.536-17.521-17.52-1.217-1.84-0.969-4.308 0.587-5.871l1.553-1.553c0.628-0.628 1.465-0.975 2.357-0.975s1.728 0.347 2.356 0.975l2.829 2.828c0.629 0.629 0.976 1.467 0.975 2.357 0 0.891-0.347 1.728-0.975 2.357l-0.516 0.509c2.339 2.787 4.933 5.381 7.721 7.721l0.513-0.513c0.628-0.628 1.465-0.975 2.357-0.975s1.728 0.347 2.357 0.975l2.829 2.828c1.299 1.3 1.299 3.413 0 4.713l-1.553 1.552c-0.879 0.877-2.052 1.36-3.303 1.36zM5.281 6.631c-0.535 0-1.037 0.208-1.413 0.584l-1.552 1.553c-1.112 1.115-1.288 2.877-0.42 4.191 4.541 6.835 10.311 12.604 17.147 17.145 0.541 0.359 1.176 0.548 1.832 0.548 0.895 0 1.732-0.345 2.36-0.971l1.552-1.552c0.779-0.78 0.779-2.048 0-2.828l-2.829-2.828c-0.377-0.377-0.879-0.584-1.415-0.584s-1.037 0.208-1.415 0.584l-0.943 0.943c-0.125 0.125-0.293 0.195-0.472 0.195-0.153 0-0.304-0.053-0.424-0.152-3.189-2.624-6.136-5.571-8.757-8.759-0.22-0.268-0.2-0.655 0.047-0.897l0.947-0.935c0.777-0.779 0.779-2.047-0.001-2.827l-2.828-2.825c-0.377-0.377-0.88-0.585-1.415-0.585z"></path>
<path d="M31.34 16.66c-0.368 0-0.667-0.299-0.667-0.667 0-8.087-6.58-14.667-14.667-14.667-0.368 0-0.667-0.299-0.667-0.667s0.299-0.667 0.667-0.667c8.823 0 16 7.177 16 16 0 0.368-0.299 0.667-0.667 0.667z"></path>
<path d="M26.007 16.66c-0.368 0-0.667-0.299-0.667-0.667 0-5.147-4.187-9.333-9.333-9.333-0.368 0-0.667-0.299-0.667-0.667s0.299-0.667 0.667-0.667c5.881 0 10.667 4.785 10.667 10.667 0 0.368-0.299 0.667-0.667 0.667z"></path>
<path d="M20.673 16.66c-0.368 0-0.667-0.299-0.667-0.667 0-2.205-1.795-4-4-4-0.368 0-0.667-0.299-0.667-0.667s0.299-0.667 0.667-0.667c2.94 0 5.333 2.392 5.333 5.333 0 0.368-0.299 0.667-0.667 0.667z"></path>
</symbol>
<symbol id="icon-phone--3" viewBox="0 0 32 32">
<title>phone--3</title>
<path d="M30.231 22.679l-3.269-3.271c-0.678-0.68-1.616-1.1-2.653-1.1s-1.974 0.421-2.653 1.1l-0.667 0.667c-3.315-2.789-6.283-5.761-8.978-8.97l-0.091-0.111 0.667-0.667c0.677-0.679 1.096-1.617 1.096-2.652s-0.419-1.973-1.096-2.652l0 0-3.276-3.267c-0.689-0.659-1.625-1.065-2.655-1.065s-1.966 0.406-2.657 1.066l0.001-0.001-1.787 1.795c-0.953 0.959-1.541 2.281-1.541 3.74 0 1.087 0.327 2.097 0.887 2.938l-0.012-0.019c5.413 8.081 12.151 14.82 19.971 20.071l0.26 0.164c0.823 0.542 1.833 0.865 2.918 0.865 1.46 0 2.784-0.585 3.75-1.533l1.793-1.794c0.68-0.678 1.1-1.616 1.1-2.651s-0.42-1.973-1.1-2.651l-0-0z"></path>
</symbol>
<symbol id="icon-phone--2" viewBox="0 0 32 32">
<title>phone--2</title>
<path d="M24.031 32.052c-1.591 0-3.149-0.457-4.509-1.323-0.004-0.003-0.035-0.023-0.039-0.024-7.191-4.861-13.3-10.972-18.159-18.164-2.141-3.365-1.679-7.663 1.12-10.461l1.032-1.032c0.653-0.652 1.521-1.011 2.447-1.011s1.793 0.359 2.445 1.011c0 0 4.349 4.355 4.349 4.355 1.347 1.349 1.345 3.543-0.003 4.889-0.568 0.569-0.568 1.496 0.001 2.065 0 0 6.971 6.972 6.976 6.977 0.257 0.256 0.624 0.408 1.013 0.408s0.756-0.152 1.031-0.427c0.653-0.652 1.521-1.012 2.447-1.012s1.793 0.359 2.447 1.011l4.348 4.347c1.348 1.349 1.348 3.544 0 4.892l-1.032 1.032c-1.591 1.591-3.692 2.467-5.915 2.467zM20.589 29.039c1.064 0.667 2.244 1.009 3.444 1.009 1.689 0 3.285-0.667 4.496-1.877l1.032-1.032c0.568-0.569 0.568-1.496 0-2.065l-4.347-4.345c-0.275-0.275-0.641-0.425-1.032-0.425s-0.757 0.152-1.032 0.427c-0.652 0.652-1.521 1.012-2.445 1.012-0.919 0-1.783-0.355-2.432-1l-6.971-6.972c-1.348-1.349-1.348-3.544 0-4.892 0.565-0.567 0.568-1.491 0.001-2.060-0.007-0.007-0.029-0.031-0.036-0.037l-4.315-4.319c-0.275-0.273-0.641-0.424-1.031-0.424-0.391 0-0.757 0.152-1.033 0.427l-1.032 1.031c-2.129 2.129-2.488 5.393-0.871 7.935 4.707 6.967 10.631 12.895 17.603 17.609v0z"></path>
</symbol>
<symbol id="icon-navigation-up-circle" viewBox="0 0 32 32">
<title>navigation-up-circle</title>
<path d="M16 31.331c-8.455 0-15.333-6.879-15.333-15.333s6.879-15.333 15.333-15.333 15.333 6.879 15.333 15.333-6.879 15.333-15.333 15.333zM16 1.997c-7.72 0-14 6.28-14 14s6.28 14 14 14c7.72 0 14-6.28 14-14s-6.28-14-14-14z"></path>
<path d="M16 24.664c-0.368 0-0.667-0.299-0.667-0.667v-15.724l-4.861 4.863c-0.127 0.125-0.293 0.195-0.472 0.195s-0.345-0.069-0.472-0.195-0.195-0.293-0.195-0.472 0.069-0.345 0.195-0.472l6-6c0.061-0.061 0.135-0.111 0.216-0.144 0.083-0.033 0.168-0.051 0.256-0.051s0.173 0.017 0.255 0.051c0.083 0.035 0.155 0.083 0.217 0.144l6 6c0.125 0.127 0.195 0.295 0.195 0.472s-0.069 0.345-0.195 0.472-0.293 0.195-0.472 0.195-0.345-0.069-0.472-0.195l-4.861-4.863v15.724c0 0.368-0.299 0.667-0.667 0.667z"></path>
</symbol>
<symbol id="icon-navigation-up-circle--3" viewBox="0 0 32 32">
<title>navigation-up-circle--3</title>
<path d="M16 32c8.837 0 16-7.163 16-16s-7.163-16-16-16c-8.837 0-16 7.163-16 16v0c0.010 8.833 7.167 15.99 15.999 16h0.001zM9.057 13.721l6-6c0.241-0.241 0.575-0.39 0.943-0.39s0.701 0.149 0.943 0.39l6 6c0.251 0.243 0.407 0.583 0.407 0.959 0 0.736-0.597 1.333-1.333 1.333-0.376 0-0.716-0.156-0.959-0.407l-3.155-3.156c-0.060-0.060-0.144-0.098-0.236-0.098-0.184 0-0.333 0.149-0.333 0.333 0 0 0 0 0 0.001v-0 11.313c0 0.736-0.597 1.333-1.333 1.333s-1.333-0.597-1.333-1.333v0-11.313c0-0 0-0 0-0.001 0-0.184-0.149-0.333-0.333-0.333-0.092 0-0.176 0.037-0.236 0.098v0l-3.155 3.156c-0.243 0.251-0.583 0.407-0.959 0.407-0.736 0-1.333-0.597-1.333-1.333 0-0.376 0.156-0.716 0.407-0.959l0-0z"></path>
</symbol>
<symbol id="icon-navigation-up-circle--2" viewBox="0 0 32 32">
<title>navigation-up-circle--2</title>
<path d="M16.001 22.996c-0.552 0-1-0.448-1-1v-9.585l-3.293 3.293c-0.189 0.189-0.44 0.293-0.707 0.293s-0.519-0.104-0.707-0.293c-0.189-0.188-0.293-0.44-0.293-0.707s0.104-0.519 0.293-0.707l4.999-4.999c0.093-0.093 0.203-0.167 0.327-0.217 0.011-0.004 0.021-0.008 0.033-0.012 0.115-0.043 0.229-0.063 0.347-0.063 0.119 0 0.236 0.021 0.348 0.064 0.009 0.003 0.019 0.007 0.027 0.009 0.129 0.053 0.239 0.127 0.333 0.221l4.999 4.999c0.189 0.188 0.293 0.44 0.293 0.707s-0.104 0.519-0.293 0.707-0.44 0.293-0.707 0.293-0.519-0.104-0.707-0.293l-3.293-3.293v9.585c0.001 0.549-0.447 0.997-0.999 0.997z"></path>
<path d="M16.001 30.996c-8.271 0-15-6.729-15-15s6.729-15 15-15c8.271 0 15 6.729 15 15s-6.729 15-15 15zM16.001 2.996c-7.168 0-13 5.832-13 13s5.832 13 13 13 13-5.832 13-13-5.832-13-13-13z"></path>
</symbol>
<symbol id="icon-navigation-right-circle-1_1" viewBox="0 0 32 32">
<title>navigation-right-circle-1_1</title>
<path d="M0 16c0 8.837 7.163 16 16 16s16-7.163 16-16c0-8.837-7.163-16-16-16v0c-8.832 0.011-15.989 7.168-16 15.999v0.001zM18.276 9.055l6 6c0.241 0.241 0.39 0.575 0.39 0.943s-0.149 0.701-0.39 0.943l-6 6c-0.24 0.232-0.566 0.374-0.926 0.374-0.736 0-1.333-0.597-1.333-1.333 0-0.36 0.143-0.687 0.375-0.927l3.154-3.156c0.058-0.060 0.094-0.142 0.094-0.232 0-0.183-0.147-0.331-0.33-0.333h-11.31c-0.736 0-1.333-0.597-1.333-1.333s0.597-1.333 1.333-1.333v0h11.309c0 0 0 0 0.001 0 0.184 0 0.333-0.149 0.333-0.333 0-0.092-0.037-0.176-0.098-0.236v0l-3.155-3.157c-0.232-0.24-0.374-0.566-0.374-0.926 0-0.736 0.597-1.333 1.333-1.333 0.36 0 0.687 0.143 0.927 0.375l-0-0z"></path>
</symbol>
<symbol id="icon-navigation-left-circle-1_1" viewBox="0 0 32 32">
<title>navigation-left-circle-1_1</title>
<path d="M32 16c0-8.837-7.163-16-16-16s-16 7.163-16 16c0 8.837 7.163 16 16 16v0c8.833-0.010 15.99-7.167 16-15.999v-0.001zM13.724 22.933l-6-6c-0.241-0.241-0.39-0.575-0.39-0.943s0.149-0.701 0.39-0.943l6-6c0.243-0.251 0.583-0.407 0.959-0.407 0.736 0 1.333 0.597 1.333 1.333 0 0.376-0.156 0.716-0.407 0.959l-0 0-3.155 3.161c-0.062 0.061-0.101 0.145-0.101 0.239 0 0.184 0.149 0.333 0.333 0.333 0.001 0 0.002 0 0.004-0h11.309c0.736 0 1.333 0.597 1.333 1.333s-0.597 1.333-1.333 1.333v0h-11.309c-0.184 0-0.333 0.149-0.333 0.333 0 0.092 0.037 0.174 0.097 0.235l3.155 3.156c0.2 0.232 0.323 0.537 0.323 0.87 0 0.736-0.597 1.333-1.333 1.333-0.335 0-0.642-0.124-0.876-0.328l0.002 0.001z"></path>
</symbol>
<symbol id="icon-navigation-down-circle" viewBox="0 0 32 32">
<title>navigation-down-circle</title>
<path d="M16 0c-8.837 0-16 7.163-16 16s7.163 16 16 16c8.837 0 16-7.163 16-16v0c-0.010-8.833-7.167-15.99-15.999-16h-0.001zM22.943 18.276l-6 6c-0.241 0.241-0.575 0.39-0.943 0.39s-0.701-0.149-0.943-0.39l-6-6c-0.232-0.24-0.374-0.566-0.374-0.926 0-0.736 0.597-1.333 1.333-1.333 0.36 0 0.687 0.143 0.927 0.375l3.154 3.154c0.060 0.061 0.144 0.098 0.236 0.098 0.184 0 0.333-0.149 0.333-0.333 0-0.001 0-0.002-0-0.003v0-11.307c0-0.736 0.597-1.333 1.333-1.333s1.333 0.597 1.333 1.333v0 11.307c0 0 0 0 0 0.001 0 0.184 0.149 0.333 0.333 0.333 0.092 0 0.176-0.037 0.236-0.098v0l3.155-3.155c0.24-0.232 0.566-0.374 0.926-0.374 0.736 0 1.333 0.597 1.333 1.333 0 0.36-0.143 0.687-0.375 0.927l0-0z"></path>
</symbol>
<symbol id="icon-mobile-phone-2" viewBox="0 0 32 32">
<title>mobile-phone-2</title>
<path d="M16 29.667c-0.552 0-1-0.448-1-1 0-0.521 0.407-0.957 0.928-0.995 0.004 0 0.008-0.001 0.011-0.001 0.023-0.003 0.041-0.004 0.061-0.004 0.552 0 1 0.448 1 1s-0.448 1-1 1z"></path>
<path d="M10 32c-1.839 0-3.333-1.496-3.333-3.333v-25.333c0-1.839 1.495-3.333 3.333-3.333h12c1.837 0 3.333 1.495 3.333 3.333v25.333c0 1.837-1.496 3.333-3.333 3.333h-12zM8 28.667c0 1.103 0.897 2 2 2h12c1.103 0 2-0.897 2-2v-2h-16v2zM24 25.333v-22c0-1.103-0.897-2-2-2h-12c-1.103 0-2 0.897-2 2v22h16z"></path>
</symbol>
<symbol id="icon-keyboard-arrow-right" viewBox="0 0 32 32">
<title>keyboard-arrow-right</title>
<path d="M24.665 23.996c-0.179 0-0.345-0.069-0.472-0.195s-0.195-0.293-0.195-0.472 0.069-0.345 0.195-0.472l5.528-5.528h-29.056c-0.368 0-0.667-0.299-0.667-0.667s0.299-0.667 0.667-0.667h29.057l-5.528-5.528c-0.26-0.26-0.26-0.683 0-0.943 0.125-0.125 0.293-0.195 0.472-0.195s0.345 0.069 0.472 0.195l6.667 6.667c0.061 0.061 0.111 0.135 0.145 0.217 0.067 0.161 0.067 0.348 0 0.509-0.033 0.083-0.083 0.156-0.145 0.217l-6.665 6.665c-0.129 0.125-0.296 0.195-0.475 0.195z"></path>
</symbol>
<symbol id="icon-keyboard-arrow-right--2" viewBox="0 0 32 32">
<title>keyboard-arrow-right--2</title>
<path d="M26 22.663c-0.267 0-0.519-0.104-0.707-0.293s-0.293-0.44-0.293-0.707 0.104-0.519 0.293-0.707l3.293-3.293h-27.587c-0.552 0-1-0.448-1-1s0.448-1 1-1h27.585l-3.293-3.293c-0.189-0.188-0.293-0.44-0.293-0.707s0.104-0.519 0.293-0.707 0.44-0.293 0.707-0.293 0.519 0.104 0.707 0.293l5 5c0.093 0.093 0.167 0.203 0.217 0.327 0.004 0.011 0.009 0.023 0.013 0.035 0.041 0.108 0.063 0.227 0.063 0.347 0 0.116-0.021 0.232-0.063 0.344-0.003 0.008-0.005 0.015-0.008 0.021-0.056 0.139-0.129 0.248-0.223 0.341l-5 5c-0.187 0.188-0.439 0.292-0.705 0.292z"></path>
</symbol>
<symbol id="icon-envelope" viewBox="0 0 32 32">
<title>envelope</title>
<path d="M14.819 19.408c0.302 0.301 0.719 0.487 1.179 0.487s0.877-0.186 1.179-0.487l12.915-12.915c0.121-0.121 0.196-0.288 0.196-0.472 0-0.334-0.246-0.611-0.567-0.659l-0.004-0c-0.115-0.018-0.247-0.028-0.382-0.028-0 0-0 0-0.001 0h-26.667c-0.001 0-0.002 0-0.003 0-0.135 0-0.267 0.010-0.397 0.030l0.015-0.002c-0.325 0.048-0.571 0.325-0.571 0.66 0 0.185 0.075 0.352 0.196 0.472l0 0z"></path>
<path d="M31.851 7.776c-0.028-0.012-0.061-0.019-0.095-0.019-0.067 0-0.128 0.027-0.172 0.071v0l-8.267 8.267c-0.060 0.061-0.097 0.144-0.097 0.236s0.037 0.175 0.097 0.236v0l6.724 6.724c0.189 0.182 0.306 0.437 0.306 0.72 0 0.552-0.448 1-1 1-0.282 0-0.537-0.117-0.719-0.305l-0-0-6.724-6.724c-0.060-0.061-0.144-0.098-0.236-0.098s-0.176 0.037-0.236 0.098v0l-2.839 2.839c-0.663 0.663-1.58 1.073-2.592 1.073s-1.929-0.41-2.592-1.073l0 0-2.841-2.836c-0.060-0.060-0.144-0.097-0.236-0.097s-0.175 0.037-0.236 0.097v0l-6.724 6.724c-0.18 0.174-0.425 0.28-0.694 0.28-0.552 0-1-0.448-1-1 0-0.27 0.107-0.515 0.281-0.695l-0 0 6.724-6.724c0.060-0.061 0.097-0.144 0.097-0.236s-0.037-0.175-0.097-0.236v0l-8.267-8.267c-0.044-0.044-0.104-0.072-0.171-0.072-0.035 0-0.067 0.007-0.097 0.020l0.002-0.001c-0.088 0.037-0.148 0.122-0.149 0.221v16c0 1.473 1.194 2.667 2.667 2.667v0h26.667c1.473 0 2.667-1.194 2.667-2.667v0-16c0-0 0-0.001 0-0.001 0-0.1-0.061-0.186-0.148-0.223l-0.002-0.001z"></path>
</symbol>
<symbol id="icon-envelope--3" viewBox="0 0 32 32">
<title>envelope--3</title>
<path d="M2.667 26.667c-1.471 0-2.667-1.196-2.667-2.667v-16c0-1.471 1.196-2.667 2.667-2.667h26.667c1.471 0 2.667 1.196 2.667 2.667v16c0 1.471-1.196 2.667-2.667 2.667h-26.667zM2.667 6.667c-0.735 0-1.333 0.599-1.333 1.333v16c0 0.736 0.599 1.333 1.333 1.333h26.667c0.736 0 1.333-0.597 1.333-1.333v-16c0-0.735-0.597-1.333-1.333-1.333h-26.667z"></path>
<path d="M16 19.333c-0.128 0-0.253-0.037-0.361-0.107l-11.335-7.333c-0.149-0.097-0.252-0.247-0.289-0.42s-0.004-0.353 0.092-0.503c0.124-0.191 0.333-0.304 0.56-0.304 0.128 0 0.253 0.037 0.361 0.107l10.972 7.099 10.972-7.099c0.107-0.069 0.232-0.107 0.361-0.107 0.227 0 0.436 0.113 0.56 0.304 0.097 0.151 0.129 0.328 0.092 0.503s-0.14 0.323-0.289 0.42l-11.333 7.333c-0.109 0.069-0.235 0.107-0.363 0.107z"></path>
<path d="M4.667 22c-0.239 0-0.461-0.129-0.579-0.336-0.183-0.319-0.071-0.727 0.248-0.909l4.667-2.667c0.1-0.057 0.215-0.088 0.331-0.088 0.239 0 0.461 0.128 0.579 0.336 0.183 0.319 0.071 0.727-0.248 0.909l-4.667 2.667c-0.1 0.057-0.215 0.088-0.331 0.088z"></path>
<path d="M27.333 22c-0.116 0-0.231-0.031-0.331-0.088l-4.667-2.667c-0.155-0.088-0.265-0.232-0.312-0.403-0.047-0.172-0.024-0.352 0.064-0.507 0.119-0.208 0.34-0.336 0.579-0.336 0.116 0 0.231 0.031 0.332 0.088l4.665 2.667c0.155 0.088 0.265 0.232 0.312 0.403 0.047 0.172 0.024 0.352-0.064 0.507-0.119 0.207-0.34 0.336-0.579 0.336z"></path>
</symbol>
<symbol id="icon-envelope--2" viewBox="0 0 32 32">
<title>envelope--2</title>
<path d="M3 27c-1.655 0-3-1.345-3-3v-16c0-0.716 0.26-1.412 0.731-1.957 0.017-0.021 0.041-0.049 0.068-0.075 0.568-0.615 1.369-0.968 2.201-0.968h26c0.833 0 1.635 0.353 2.203 0.969 0.024 0.024 0.047 0.049 0.068 0.076 0.468 0.539 0.729 1.236 0.729 1.955v16c0 1.655-1.345 3-3 3h-26zM2 24c0 0.552 0.448 1 1 1h26c0.552 0 1-0.448 1-1v-15.751l-7.488 5.164 4.167 3.852c0.405 0.375 0.429 1.008 0.056 1.413-0.189 0.204-0.457 0.321-0.735 0.321-0.252 0-0.493-0.095-0.679-0.265l-4.497-4.157-2.433 1.679c-0.701 0.485-1.528 0.741-2.391 0.741-0.861 0-1.688-0.256-2.391-0.741l-2.433-1.677-4.497 4.157c-0.185 0.169-0.427 0.264-0.679 0.264-0.277 0-0.545-0.117-0.735-0.32-0.375-0.405-0.349-1.040 0.055-1.413l4.167-3.852-7.487-5.165v15.751zM14.745 14.609c0.368 0.255 0.801 0.388 1.255 0.388s0.887-0.135 1.255-0.388l11.035-7.609h-24.579l11.035 7.609z"></path>
</symbol>
<symbol id="icon-download-circle" viewBox="0 0 32 32">
<title>download-circle</title>
<path d="M16 25c-0.117 0-0.233-0.021-0.347-0.063-0.011-0.004-0.020-0.007-0.029-0.011-0.128-0.052-0.239-0.125-0.332-0.22l-4.999-5c-0.389-0.389-0.389-1.024 0-1.415 0.189-0.189 0.44-0.293 0.707-0.293s0.519 0.104 0.707 0.293l3.293 3.293v-12.585c0-0.552 0.448-1 1-1s1 0.448 1 1v12.585l3.293-3.293c0.189-0.189 0.44-0.293 0.707-0.293s0.519 0.104 0.707 0.293c0.389 0.389 0.389 1.024 0 1.415l-5 5c-0.093 0.093-0.204 0.167-0.328 0.219-0.011 0.004-0.023 0.009-0.035 0.013-0.113 0.041-0.228 0.061-0.344 0.061z"></path>
<path d="M16 32c-8.823 0-16-7.177-16-16s7.177-16 16-16c8.823 0 16 7.177 16 16s-7.177 16-16 16zM16 2c-7.72 0-14 6.28-14 14s6.28 14 14 14c7.72 0 14-6.28 14-14s-6.28-14-14-14z"></path>
</symbol>
<symbol id="icon-download-circle--2" viewBox="0 0 32 32">
<title>download-circle--2</title>
<path d="M16 31.333c-8.455 0-15.333-6.879-15.333-15.333s6.879-15.333 15.333-15.333 15.333 6.879 15.333 15.333-6.879 15.333-15.333 15.333zM16 2c-7.72 0-14 6.28-14 14s6.28 14 14 14c7.72 0 14-6.28 14-14s-6.28-14-14-14z"></path>
<path d="M16 25.333c-0.088 0-0.173-0.017-0.256-0.052-0.081-0.033-0.155-0.083-0.217-0.145l-7.332-7.332c-0.125-0.125-0.195-0.292-0.195-0.471s0.069-0.345 0.195-0.472 0.293-0.195 0.472-0.195 0.345 0.069 0.472 0.195l6.195 6.195v-15.723c0-0.368 0.299-0.667 0.667-0.667s0.667 0.299 0.667 0.667v15.724l6.195-6.195c0.125-0.125 0.293-0.195 0.472-0.195s0.345 0.069 0.472 0.195 0.195 0.292 0.195 0.471-0.069 0.345-0.195 0.472l-7.333 7.333c-0.061 0.061-0.135 0.111-0.217 0.145-0.081 0.032-0.167 0.049-0.255 0.049z"></path>
</symbol>
<symbol id="icon-check" viewBox="0 0 32 32">
<title>check</title>
<path d="M30.861 7.2l-3.723-3.733c-0.121-0.121-0.288-0.196-0.472-0.196s-0.351 0.075-0.472 0.196v0l-15.723 15.733c-0.121 0.121-0.288 0.196-0.472 0.196s-0.351-0.075-0.472-0.196l-3.723-3.733c-0.121-0.121-0.288-0.196-0.472-0.196s-0.351 0.075-0.472 0.196l-3.723 3.733c-0.121 0.121-0.195 0.287-0.195 0.471s0.075 0.351 0.195 0.471l8.389 8.391c0.121 0.121 0.288 0.196 0.472 0.196s0.351-0.075 0.472-0.196v0l20.389-20.4c0.118-0.12 0.191-0.285 0.191-0.467s-0.073-0.346-0.191-0.467l0 0z"></path>
</symbol>
<symbol id="icon-check-circle-1" viewBox="0 0 32 32">
<title>check-circle-1</title>
<path d="M12.433 23.888c-0.156 0-0.313-0.016-0.469-0.047-0.629-0.125-1.172-0.487-1.528-1.019l-3.253-4.616c-0.317-0.451-0.209-1.076 0.241-1.393 0.169-0.12 0.368-0.183 0.576-0.183 0.325 0 0.631 0.159 0.819 0.424l3.267 4.636c0.072 0.108 0.16 0.168 0.268 0.189 0.027 0.005 0.053 0.008 0.080 0.008 0.077 0 0.153-0.024 0.219-0.068 0.037-0.025 0.069-0.056 0.096-0.091l10.469-13.247c0.189-0.24 0.475-0.379 0.783-0.379 0.224 0 0.444 0.076 0.619 0.215 0.209 0.165 0.343 0.403 0.373 0.668s-0.043 0.527-0.208 0.736l-10.457 13.231c-0.151 0.199-0.343 0.379-0.564 0.528-0.396 0.267-0.856 0.407-1.329 0.407z"></path>
<path d="M16 31.999c-8.823 0-16-7.177-16-16s7.177-16 16-16c8.823 0 16 7.177 16 16s-7.177 16-16 16zM16 1.999c-7.72 0-14 6.28-14 14s6.28 14 14 14c7.72 0 14-6.28 14-14s-6.28-14-14-14z"></path>
</symbol>
<symbol id="icon-check-circle-1-alternate" viewBox="0 0 32 32">
<title>check-circle-1-alternate</title>
<path d="M24.64 8.599c-0.273-0.203-0.616-0.325-0.988-0.325-0.548 0-1.035 0.265-1.338 0.674l-0.003 0.004-7.899 10.72-5.023-4.019c-0.278-0.215-0.631-0.344-1.014-0.344-0.921 0-1.668 0.747-1.668 1.668 0 0.513 0.232 0.972 0.596 1.278l0.003 0.002 6.377 5.101c0.283 0.223 0.645 0.358 1.037 0.358 0.548 0 1.035-0.262 1.342-0.667l0.003-0.004 8.933-12.116c0.202-0.272 0.323-0.615 0.323-0.986 0-0.55-0.266-1.038-0.677-1.341l-0.005-0.003z"></path>
<path d="M16 0c-8.837 0-16 7.163-16 16s7.163 16 16 16c8.837 0 16-7.163 16-16v0c-0.010-8.833-7.167-15.99-15.999-16h-0.001zM16 29.333c-7.364 0-13.333-5.97-13.333-13.333s5.97-13.333 13.333-13.333c7.364 0 13.333 5.97 13.333 13.333v0c-0.008 7.36-5.973 13.325-13.333 13.333h-0.001z"></path>
</symbol>
<symbol id="icon-check-circle-1--3" viewBox="0 0 32 32">
<title>check-circle-1--3</title>
<path d="M16 0c-8.837 0-16 7.163-16 16s7.163 16 16 16c8.837 0 16-7.163 16-16v0c-0.011-8.832-7.168-15.989-15.999-16h-0.001zM25.236 10.933l-9.127 12.385c-0.249 0.327-0.638 0.537-1.076 0.537-0.314 0-0.604-0.108-0.833-0.288l0.003 0.002-6.517-5.211c-0.306-0.246-0.5-0.621-0.5-1.041 0-0.737 0.597-1.334 1.334-1.334 0.316 0 0.607 0.11 0.836 0.294l-0.003-0.002 5.435 4.348 8.303-11.268c0.242-0.36 0.649-0.594 1.11-0.594 0.736 0 1.333 0.597 1.333 1.333 0 0.319-0.112 0.611-0.298 0.84l0.002-0.002z"></path>
</symbol>
<symbol id="icon-check-circle-1--2" viewBox="0 0 32 32">
<title>check-circle-1--2</title>
<path d="M14.667 22.665c-0.151 0-0.299-0.052-0.416-0.145l-6.667-5.333c-0.287-0.231-0.333-0.651-0.104-0.937 0.127-0.16 0.317-0.251 0.52-0.251 0.151 0 0.299 0.052 0.416 0.145l6.125 4.9 8.923-12.108c0.124-0.169 0.324-0.271 0.536-0.271 0.144 0 0.28 0.045 0.396 0.131 0.143 0.105 0.236 0.26 0.264 0.436s-0.017 0.352-0.123 0.496l-9.333 12.667c-0.107 0.145-0.271 0.243-0.451 0.265-0.028 0.004-0.057 0.005-0.087 0.005z"></path>
<path d="M16 31.999c-8.823 0-16-7.177-16-16s7.177-16 16-16c8.823 0 16 7.177 16 16s-7.177 16-16 16zM16 1.332c-8.087 0-14.667 6.58-14.667 14.667s6.58 14.667 14.667 14.667 14.667-6.58 14.667-14.667-6.58-14.667-14.667-14.667z"></path>
</symbol>
<symbol id="icon-check-badge" viewBox="0 0 32 32">
<title>check-badge</title>
<path d="M14.889 21.479c-0.435 0-0.848-0.139-1.197-0.401-0.075-0.056-0.145-0.117-0.211-0.183l-3.188-3.187c-0.189-0.188-0.293-0.44-0.293-0.707s0.104-0.519 0.292-0.707c0.189-0.189 0.44-0.293 0.707-0.293s0.519 0.104 0.707 0.293l3.185 3.184 5.308-7.077c0.188-0.251 0.488-0.4 0.8-0.4 0.217 0 0.424 0.069 0.599 0.199 0.443 0.332 0.532 0.96 0.201 1.401l-5.308 7.077c-0.321 0.427-0.789 0.704-1.317 0.78-0.095 0.013-0.189 0.020-0.284 0.020z"></path>
<path d="M15.995 32.001c-0.727 0-1.412-0.241-1.981-0.7-0.179-0.144-0.343-0.308-0.487-0.487l-2.015-2.507c-0.224-0.279-0.559-0.439-0.916-0.439-0.043 0-0.085 0.003-0.128 0.007l-3.199 0.348c-0.119 0.013-0.239 0.020-0.357 0.020-0.721 0-1.403-0.24-1.971-0.692-0.663-0.528-1.079-1.283-1.173-2.124-0.027-0.236-0.027-0.475 0-0.709l0.348-3.196c0.043-0.4-0.119-0.789-0.432-1.041l-2.507-2.015c-0.66-0.531-1.075-1.287-1.167-2.128s0.149-1.669 0.68-2.331c0.144-0.179 0.308-0.343 0.487-0.487l2.507-2.016c0.315-0.253 0.476-0.641 0.432-1.041l-0.348-3.2c-0.095-0.84 0.145-1.667 0.675-2.329s1.284-1.079 2.125-1.173c0.116-0.013 0.235-0.020 0.352-0.020s0.236 0.007 0.353 0.020l3.196 0.348c0.041 0.004 0.084 0.007 0.127 0.007 0.357 0 0.691-0.16 0.915-0.439l2.016-2.493c0.604-0.751 1.507-1.181 2.473-1.181 0.72 0 1.425 0.248 1.987 0.7 0.179 0.144 0.34 0.307 0.484 0.484l2.016 2.508c0.224 0.28 0.556 0.44 0.911 0.44 0.043 0 0.087-0.003 0.129-0.007l3.201-0.348c0.117-0.013 0.236-0.020 0.352-0.020 0.725 0 1.408 0.24 1.977 0.696 0.661 0.529 1.077 1.285 1.172 2.128 0.025 0.233 0.025 0.469 0 0.703l-0.347 3.196c-0.043 0.4 0.119 0.788 0.432 1.040l2.508 2.017c0.661 0.531 1.075 1.288 1.167 2.131s-0.151 1.671-0.683 2.331c-0.141 0.177-0.304 0.34-0.483 0.484l-2.52 2.009c-0.312 0.251-0.472 0.639-0.429 1.040l0.348 3.2c0.093 0.839-0.145 1.667-0.675 2.329s-1.284 1.079-2.125 1.173c-0.117 0.013-0.235 0.020-0.353 0.020-0.117 0-0.235-0.007-0.351-0.019l-3.199-0.348c-0.045-0.005-0.089-0.008-0.133-0.008-0.353 0-0.684 0.16-0.907 0.439l-2.009 2.5c-0.531 0.661-1.287 1.075-2.128 1.167-0.116 0.007-0.232 0.013-0.348 0.013zM10.6 25.869c0.965 0 1.865 0.432 2.471 1.187l2.015 2.507c0.053 0.067 0.113 0.127 0.18 0.179 0.212 0.169 0.464 0.26 0.729 0.26 0.044 0 0.087-0.003 0.131-0.008 0.312-0.033 0.592-0.187 0.787-0.431l2.009-2.499c0.604-0.753 1.503-1.187 2.467-1.187 0.116 0 0.232 0.007 0.349 0.019l3.2 0.348c0.045 0.005 0.091 0.008 0.136 0.008 0.041 0 0.083-0.003 0.124-0.007 0.313-0.035 0.592-0.189 0.788-0.435s0.284-0.551 0.249-0.861l-0.348-3.204c-0.117-1.083 0.32-2.135 1.168-2.816l2.519-2.009c0.063-0.051 0.123-0.109 0.175-0.175 0.197-0.245 0.288-0.552 0.253-0.863-0.033-0.312-0.187-0.591-0.431-0.788l-2.508-2.016c-0.848-0.68-1.285-1.733-1.168-2.815l0.348-3.2c0.011-0.088 0.011-0.175 0-0.26-0.035-0.312-0.189-0.592-0.433-0.788-0.209-0.169-0.463-0.257-0.729-0.257-0.044 0-0.088 0.003-0.132 0.007l-3.203 0.348c-0.116 0.012-0.231 0.019-0.345 0.019-0.965 0-1.865-0.432-2.471-1.187l-2.015-2.507c-0.053-0.065-0.113-0.125-0.179-0.179-0.209-0.169-0.464-0.259-0.733-0.259-0.359 0-0.692 0.16-0.916 0.437l-2.016 2.493c-0.607 0.753-1.505 1.185-2.468 1.185-0.115 0-0.231-0.007-0.348-0.019l-3.2-0.348c-0.045-0.005-0.089-0.008-0.133-0.008s-0.088 0.003-0.132 0.007c-0.309 0.035-0.588 0.189-0.784 0.433-0.195 0.244-0.284 0.551-0.249 0.861l0.348 3.203c0.117 1.083-0.32 2.135-1.168 2.816l-2.505 2.015c-0.067 0.053-0.127 0.113-0.18 0.18-0.405 0.504-0.324 1.244 0.18 1.648l2.507 2.015c0.848 0.681 1.285 1.735 1.168 2.816l-0.348 3.2c-0.011 0.091-0.011 0.179 0 0.265 0.035 0.311 0.189 0.589 0.433 0.784 0.209 0.167 0.461 0.256 0.727 0.256 0.044 0 0.089-0.003 0.135-0.008l3.203-0.348c0.116-0.009 0.232-0.016 0.345-0.016z"></path>
</symbol>
<symbol id="icon-check-badge-alternate" viewBox="0 0 32 32">
<title>check-badge-alternate</title>
<path d="M21.888 10.667c-0.275-0.208-0.623-0.333-1-0.333-0.543 0-1.026 0.26-1.331 0.662l-0.003 0.004-4.98 6.64-2.731-2.731c-0.301-0.301-0.718-0.488-1.178-0.488-0.92 0-1.666 0.746-1.666 1.666 0 0.46 0.186 0.877 0.488 1.178l3.255 3.256c0.49 0.476 1.16 0.77 1.898 0.77 0.874 0 1.652-0.412 2.151-1.052l0.005-0.006 5.425-7.235c0.208-0.275 0.333-0.622 0.333-0.999 0-0.543-0.26-1.026-0.662-1.33l-0.004-0.003z"></path>
<path d="M30.708 13.304l-2.451-1.971c-0.181-0.148-0.295-0.371-0.295-0.62 0-0.029 0.002-0.058 0.005-0.087l-0 0.004 0.34-3.127c0.013-0.113 0.020-0.243 0.020-0.375 0-1.909-1.548-3.457-3.457-3.457-0.132 0-0.263 0.007-0.391 0.022l0.016-0.001-3.128 0.34c-0.027 0.003-0.059 0.005-0.090 0.005-0.247 0-0.467-0.115-0.61-0.294l-0.001-0.002-1.971-2.451c-0.639-0.79-1.608-1.29-2.695-1.29s-2.056 0.501-2.69 1.284l-0.005 0.006-1.972 2.451c-0.146 0.181-0.368 0.297-0.617 0.297-0.030 0-0.060-0.002-0.090-0.005l0.004 0-3.127-0.34c-0.113-0.013-0.244-0.021-0.376-0.021-1.909 0-3.456 1.547-3.456 3.456 0 0.132 0.007 0.263 0.022 0.391l-0.001-0.016 0.34 3.129c0.003 0.027 0.005 0.057 0.005 0.088 0 0.247-0.114 0.468-0.293 0.612l-0.002 0.001-2.452 1.971c-0.79 0.639-1.29 1.608-1.29 2.695s0.501 2.055 1.284 2.69l0.006 0.005 2.451 1.973c0.181 0.146 0.296 0.367 0.296 0.615 0 0.032-0.002 0.063-0.005 0.094l0-0.004-0.34 3.121c-0.013 0.113-0.020 0.243-0.020 0.375 0 1.91 1.549 3.459 3.459 3.459 0.132 0 0.262-0.007 0.389-0.022l-0.016 0.001 3.128-0.341c0.027-0.003 0.058-0.005 0.090-0.005 0.247 0 0.467 0.115 0.61 0.294l0.001 0.002 1.972 2.451c0.639 0.791 1.608 1.292 2.695 1.292s2.056-0.501 2.69-1.285l0.005-0.007 1.972-2.449c0.148-0.181 0.371-0.296 0.621-0.296 0.029 0 0.057 0.002 0.085 0.004l-0.003-0 3.128 0.341c0.112 0.013 0.242 0.020 0.374 0.020 1.91 0 3.459-1.549 3.459-3.459 0-0.132-0.007-0.261-0.022-0.389l0.001 0.016-0.34-3.129c-0.003-0.027-0.005-0.057-0.005-0.088 0-0.247 0.114-0.468 0.293-0.612l0.002-0.001 2.452-1.971c0.791-0.639 1.292-1.608 1.292-2.695s-0.501-2.056-1.285-2.69l-0.007-0.005zM29.037 16.615l-2.452 1.971c-0.79 0.636-1.292 1.604-1.292 2.688 0 0.133 0.008 0.265 0.022 0.395l-0.001-0.016 0.341 3.129c0.003 0.026 0.005 0.055 0.005 0.085 0 0.218-0.088 0.416-0.231 0.559v0c-0.142 0.143-0.338 0.232-0.555 0.232-0.032 0-0.063-0.002-0.094-0.006l0.004 0-3.129-0.34c-0.113-0.013-0.245-0.021-0.378-0.021-1.085 0-2.052 0.501-2.683 1.285l-0.005 0.007-1.971 2.452c-0.152 0.17-0.372 0.277-0.617 0.277s-0.465-0.107-0.616-0.276l-0.001-0.001-1.971-2.449c-0.635-0.79-1.602-1.292-2.686-1.292-0.001 0-0.002 0-0.003 0h0c-0.001 0-0.003 0-0.004 0-0.133 0-0.264 0.008-0.393 0.023l0.016-0.002-3.128 0.34c-0.027 0.003-0.058 0.005-0.090 0.005-0.217 0-0.413-0.089-0.554-0.232l-0-0c-0.144-0.143-0.233-0.341-0.233-0.559 0-0.030 0.002-0.060 0.005-0.090l-0 0.004 0.341-3.125c0.013-0.113 0.021-0.245 0.021-0.378 0-1.085-0.501-2.052-1.285-2.683l-0.007-0.005-2.452-1.976c-0.181-0.146-0.295-0.368-0.295-0.617s0.114-0.47 0.294-0.616l0.001-0.001 2.452-1.969c0.79-0.636 1.292-1.604 1.292-2.688 0-0.133-0.008-0.265-0.022-0.395l0.001 0.016-0.341-3.132c-0.003-0.026-0.005-0.056-0.005-0.086 0-0.436 0.353-0.789 0.789-0.789 0.031 0 0.061 0.002 0.091 0.005l-0.004-0 3.129 0.34c0.113 0.013 0.245 0.021 0.378 0.021 1.085 0 2.052-0.501 2.684-1.285l0.005-0.007 1.971-2.451c0.152-0.17 0.372-0.277 0.617-0.277s0.465 0.107 0.616 0.276l0.001 0.001 1.969 2.452c0.636 0.79 1.603 1.292 2.687 1.292 0.134 0 0.266-0.008 0.396-0.023l-0.016 0.001 3.128-0.34c0.025-0.003 0.055-0.005 0.085-0.005 0.437 0 0.792 0.355 0.792 0.792 0 0.030-0.002 0.059-0.005 0.088l0-0.004-0.341 3.129c-0.013 0.113-0.020 0.243-0.020 0.375 0 1.085 0.501 2.054 1.285 2.686l0.007 0.005 2.451 1.969c0.181 0.146 0.297 0.368 0.297 0.617s-0.115 0.471-0.295 0.615l-0.002 0.001z"></path>
</symbol>
<symbol id="icon-check-badge--3" viewBox="0 0 32 32">
<title>check-badge--3</title>
<path d="M30.291 13.8l-2.451-1.971c-0.332-0.269-0.542-0.677-0.542-1.134 0-0.057 0.003-0.113 0.010-0.168l-0.001 0.007 0.34-3.127c0.011-0.092 0.017-0.198 0.017-0.306 0-1.54-1.248-2.788-2.788-2.788-0.107 0-0.213 0.006-0.318 0.018l0.013-0.001-3.131 0.336c-0.048 0.006-0.104 0.009-0.16 0.009-0.457 0-0.865-0.21-1.132-0.54l-0.002-0.003-1.971-2.449c-0.53-0.61-1.308-0.994-2.175-0.994s-1.644 0.384-2.172 0.99l-0.003 0.004-1.971 2.449c-0.268 0.332-0.674 0.543-1.13 0.543-0.058 0-0.115-0.003-0.171-0.010l0.007 0.001-3.127-0.336c-0.092-0.011-0.198-0.017-0.306-0.017-1.54 0-2.788 1.248-2.788 2.788 0 0.107 0.006 0.213 0.018 0.318l-0.001-0.013 0.34 3.127c0.006 0.049 0.009 0.106 0.009 0.164 0 0.456-0.211 0.863-0.54 1.129l-0.003 0.002-2.453 1.972c-0.638 0.515-1.043 1.298-1.043 2.175s0.405 1.659 1.037 2.171l0.005 0.004 2.451 1.971c0.332 0.268 0.543 0.675 0.543 1.131 0 0.058-0.003 0.114-0.010 0.17l0.001-0.007-0.34 3.127c-0.011 0.092-0.017 0.198-0.017 0.306 0 1.54 1.248 2.788 2.788 2.788 0.107 0 0.213-0.006 0.318-0.018l-0.013 0.001 3.128-0.34c0.048-0.006 0.104-0.009 0.161-0.009 0.457 0 0.865 0.21 1.131 0.54l0.002 0.003 1.973 2.455c0.515 0.638 1.298 1.043 2.175 1.043s1.659-0.405 2.171-1.037l0.004-0.005 1.971-2.451c0.269-0.332 0.677-0.542 1.134-0.542 0.057 0 0.112 0.003 0.167 0.009l-0.007-0.001 3.127 0.34c0.092 0.011 0.198 0.017 0.306 0.017 1.54 0 2.788-1.248 2.788-2.788 0-0.107-0.006-0.213-0.018-0.318l0.001 0.013-0.34-3.128c-0.006-0.049-0.009-0.107-0.009-0.165 0-0.456 0.211-0.863 0.54-1.128l0.003-0.002 2.451-1.971c0.638-0.515 1.043-1.298 1.043-2.175s-0.405-1.659-1.037-2.171l-0.005-0.004zM16.533 20.064c-0.439 0.568-1.121 0.931-1.888 0.931-0.647 0-1.234-0.258-1.663-0.678l0 0-3.259-3.251c-0.251-0.243-0.407-0.583-0.407-0.959 0-0.736 0.597-1.333 1.333-1.333 0.376 0 0.716 0.156 0.959 0.407l3.002 3.002 5.212-6.948c0.246-0.325 0.632-0.533 1.067-0.533 0.736 0 1.333 0.597 1.333 1.333 0 0.302-0.1 0.58-0.269 0.803l0.002-0.003z"></path>
</symbol>
<symbol id="icon-check-badge--2" viewBox="0 0 32 32">
<title>check-badge--2</title>
<path d="M15.089 20.976c-0.368 0-0.717-0.117-1.012-0.337-0.064-0.048-0.124-0.099-0.18-0.156l-3.256-3.257c-0.26-0.26-0.26-0.683 0-0.943 0.125-0.125 0.293-0.195 0.472-0.195s0.345 0.069 0.472 0.196l3.256 3.257c0.011 0.011 0.023 0.021 0.035 0.029 0.064 0.048 0.137 0.073 0.215 0.073 0.113 0 0.217-0.052 0.285-0.143l5.427-7.235c0.125-0.167 0.324-0.267 0.533-0.267 0.145 0 0.284 0.047 0.4 0.133 0.141 0.107 0.235 0.263 0.26 0.439s-0.020 0.352-0.127 0.495l-5.427 7.235c-0.317 0.423-0.824 0.675-1.353 0.675z"></path>
<path d="M16 32.001c-0.652 0-1.292-0.224-1.801-0.632-0.165-0.133-0.317-0.284-0.451-0.451l-2.056-2.561c-0.297-0.369-0.737-0.581-1.211-0.581-0.056 0-0.113 0.003-0.171 0.009l-3.268 0.356c-0.107 0.012-0.215 0.017-0.321 0.017-0.659 0-1.281-0.22-1.8-0.637-0.601-0.483-0.979-1.171-1.063-1.937-0.023-0.208-0.023-0.419 0-0.627l0.356-3.269c0.057-0.529-0.156-1.045-0.572-1.379l-2.561-2.056c-1.243-0.996-1.443-2.817-0.447-4.060 0.132-0.165 0.283-0.315 0.447-0.447l2.563-2.059c0.416-0.333 0.631-0.849 0.572-1.38l-0.356-3.268c-0.084-0.768 0.137-1.521 0.62-2.123 0.484-0.601 1.173-0.979 1.94-1.061 0.104-0.011 0.207-0.016 0.311-0.016s0.208 0.005 0.311 0.016l3.271 0.356c0.059 0.007 0.116 0.009 0.173 0.009 0.471 0 0.909-0.212 1.207-0.58l2.057-2.564c0.551-0.687 1.372-1.081 2.256-1.081 0.652 0 1.292 0.224 1.801 0.632 0.165 0.132 0.317 0.284 0.451 0.451l2.059 2.563c0.296 0.369 0.736 0.58 1.205 0.58 0.057 0 0.116-0.003 0.175-0.009l3.269-0.356c0.104-0.011 0.208-0.016 0.309-0.016 1.48 0 2.715 1.111 2.872 2.584 0.021 0.207 0.021 0.413 0 0.617l-0.356 3.269c-0.057 0.529 0.156 1.045 0.572 1.38l2.563 2.059c0.601 0.483 0.98 1.171 1.064 1.937s-0.135 1.52-0.617 2.123c-0.131 0.163-0.281 0.313-0.447 0.447l-2.563 2.060c-0.416 0.333-0.631 0.849-0.572 1.379l0.356 3.269c0.173 1.583-0.973 3.011-2.556 3.183-0.104 0.012-0.208 0.017-0.313 0.017s-0.209-0.005-0.313-0.017l-3.269-0.356c-0.057-0.007-0.115-0.009-0.172-0.009-0.471 0-0.912 0.212-1.208 0.581l-2.057 2.56c-0.551 0.684-1.373 1.079-2.257 1.079v0zM10.483 26.443c0.877 0 1.697 0.393 2.249 1.079l2.057 2.563c0.072 0.091 0.153 0.172 0.243 0.243 0.279 0.223 0.613 0.34 0.969 0.34 0.476 0 0.919-0.212 1.215-0.583l2.057-2.56c0.551-0.687 1.371-1.080 2.248-1.080 0.104 0 0.209 0.005 0.315 0.017l3.269 0.356c0.056 0.007 0.112 0.009 0.169 0.009s0.112-0.003 0.168-0.009c0.852-0.093 1.469-0.861 1.376-1.713l-0.356-3.269c-0.107-0.985 0.291-1.943 1.063-2.563l2.561-2.059c0.091-0.072 0.172-0.153 0.241-0.24 0.261-0.325 0.379-0.731 0.333-1.144s-0.249-0.783-0.572-1.043l-2.563-2.059c-0.773-0.62-1.169-1.579-1.063-2.564l0.356-3.268c0.012-0.109 0.012-0.221 0-0.333-0.084-0.792-0.749-1.389-1.545-1.389-0.055 0-0.111 0.003-0.167 0.009l-3.268 0.355c-0.105 0.011-0.209 0.017-0.313 0.017-0.879 0-1.7-0.393-2.249-1.077l-2.060-2.564c-0.072-0.091-0.153-0.172-0.243-0.243-0.279-0.223-0.613-0.34-0.969-0.34-0.476 0-0.919 0.212-1.215 0.583l-2.059 2.563c-0.552 0.685-1.371 1.079-2.249 1.079-0.104 0-0.211-0.005-0.316-0.017l-3.269-0.356c-0.055-0.005-0.109-0.008-0.165-0.008s-0.112 0.003-0.167 0.009c-0.415 0.044-0.785 0.247-1.045 0.571-0.261 0.324-0.38 0.729-0.335 1.143l0.356 3.268c0.107 0.985-0.291 1.944-1.063 2.564l-2.563 2.059c-0.089 0.072-0.171 0.152-0.241 0.241-0.259 0.324-0.377 0.729-0.332 1.143s0.249 0.784 0.572 1.043l2.563 2.057c0.773 0.62 1.171 1.579 1.063 2.563l-0.356 3.269c-0.012 0.112-0.012 0.225 0 0.337 0.045 0.413 0.248 0.783 0.572 1.043 0.279 0.224 0.615 0.343 0.971 0.343 0.057 0 0.115-0.003 0.172-0.009l3.269-0.356c0.105-0.012 0.209-0.017 0.315-0.017z"></path>
</symbol>
<symbol id="icon-check-2" viewBox="0 0 32 32">
<title>check-2</title>
<path d="M12.433 23.888c-0.156 0-0.313-0.016-0.469-0.047-0.629-0.125-1.172-0.487-1.528-1.019l-3.253-4.616c-0.317-0.451-0.209-1.076 0.241-1.393 0.169-0.12 0.368-0.183 0.576-0.183 0.325 0 0.631 0.159 0.819 0.424l3.267 4.636c0.072 0.108 0.16 0.168 0.268 0.189 0.027 0.005 0.053 0.008 0.080 0.008 0.077 0 0.153-0.024 0.219-0.068 0.037-0.025 0.069-0.056 0.096-0.091l10.469-13.247c0.189-0.24 0.475-0.379 0.783-0.379 0.224 0 0.444 0.076 0.619 0.215 0.209 0.165 0.343 0.403 0.373 0.668s-0.043 0.527-0.208 0.736l-10.457 13.231c-0.151 0.199-0.343 0.379-0.564 0.528-0.396 0.267-0.856 0.407-1.329 0.407z"></path>
<path d="M3 31.999c-1.655 0-3-1.345-3-3v-26c0-1.655 1.345-3 3-3h26c1.655 0 3 1.345 3 3v26c0 1.655-1.345 3-3 3h-26zM3 1.999c-0.552 0-1 0.448-1 1v26c0 0.552 0.448 1 1 1h26c0.552 0 1-0.448 1-1v-26c0-0.552-0.448-1-1-1h-26z"></path>
</symbol>
<symbol id="icon-check-2-alternate" viewBox="0 0 32 32">
<title>check-2-alternate</title>
<path d="M24.988 8.324c-0.273-0.203-0.617-0.325-0.989-0.325-0.548 0-1.035 0.265-1.339 0.674l-0.003 0.004-8.304 11.271-5.313-4.251c-0.287-0.241-0.661-0.388-1.069-0.388-0.92 0-1.667 0.746-1.667 1.667 0 0.538 0.255 1.016 0.651 1.321l0.004 0.003 6.667 5.333c0.279 0.224 0.637 0.359 1.026 0.359 0.005 0 0.011-0 0.016-0h-0.001c0.002 0 0.003 0 0.005 0 0.544 0 1.028-0.26 1.333-0.663l0.003-0.004 9.333-12.667c0.204-0.273 0.327-0.618 0.327-0.992 0-0.549-0.266-1.037-0.676-1.34l-0.005-0.003z"></path>
<path d="M29.333 0h-26.667c-1.473 0-2.667 1.194-2.667 2.667v0 26.667c0 1.473 1.194 2.667 2.667 2.667v0h26.667c1.473 0 2.667-1.194 2.667-2.667v0-26.667c0-1.473-1.194-2.667-2.667-2.667v0zM29.333 29c0 0.184-0.149 0.333-0.333 0.333v0h-26c-0 0-0.001 0-0.001 0-0.183 0-0.332-0.149-0.332-0.332 0-0 0-0.001 0-0.001v0-26.001c0 0 0 0 0 0 0-0.183 0.149-0.332 0.332-0.332 0 0 0.001 0 0.001 0h26c0.184 0 0.333 0.149 0.333 0.333v0z"></path>
</symbol>
<symbol id="icon-check-2--3" viewBox="0 0 32 32">
<title>check-2--3</title>
<path d="M29.94 0h-27.88c-1.137 0.002-2.058 0.923-2.060 2.060v27.879c0.001 1.138 0.922 2.060 2.060 2.061h27.88c1.138-0.002 2.059-0.924 2.060-2.061v-27.879c-0.002-1.137-0.923-2.058-2.060-2.060h-0zM25.073 10.459l-9.333 12.667c-0.249 0.326-0.638 0.535-1.076 0.535-0.314 0-0.604-0.107-0.833-0.288l0.003 0.002-6.667-5.333c-0.314-0.246-0.515-0.626-0.515-1.052 0-0.736 0.597-1.333 1.333-1.333 0.323 0 0.619 0.115 0.85 0.306l-0.002-0.002 5.583 4.467 8.517-11.552c0.246-0.33 0.635-0.542 1.073-0.542 0.736 0 1.334 0.597 1.334 1.334 0 0.298-0.098 0.573-0.263 0.795l0.003-0.004z"></path>
</symbol>
<symbol id="icon-check-2--2" viewBox="0 0 32 32">
<title>check-2--2</title>
<path d="M14.667 22.665c-0.151 0-0.299-0.052-0.416-0.145l-6.667-5.333c-0.287-0.231-0.333-0.651-0.104-0.937 0.127-0.16 0.317-0.251 0.52-0.251 0.151 0 0.299 0.052 0.416 0.145l6.125 4.9 8.923-12.108c0.124-0.169 0.324-0.271 0.536-0.271 0.144 0 0.28 0.045 0.396 0.131 0.143 0.105 0.236 0.26 0.264 0.436s-0.017 0.352-0.123 0.496l-9.333 12.667c-0.107 0.145-0.271 0.243-0.451 0.265-0.028 0.004-0.057 0.005-0.087 0.005z"></path>
<path d="M2 31.999c-1.103 0-2-0.897-2-2v-28c0-1.103 0.897-2 2-2h28c1.103 0 2 0.897 2 2v28c0 1.103-0.897 2-2 2h-28zM2 1.332c-0.368 0-0.667 0.299-0.667 0.667v28c0 0.368 0.299 0.667 0.667 0.667h28c0.368 0 0.667-0.299 0.667-0.667v-28c0-0.368-0.299-0.667-0.667-0.667h-28z"></path>
</symbol>
<symbol id="icon-check--2" viewBox="0 0 32 32">
<title>check--2</title>
<path d="M9.997 31.995c-0.608 0-1.18-0.236-1.609-0.664l-7.723-7.724c-0.431-0.431-0.668-1.004-0.667-1.611 0-0.608 0.237-1.179 0.668-1.608l3.056-3.057c0.431-0.431 1.003-0.668 1.609-0.668 0.609 0 1.181 0.237 1.611 0.668l3.056 3.057 15.052-15.053c0.436-0.435 1.007-0.671 1.615-0.671 0.609 0 1.181 0.237 1.611 0.667l3.056 3.057c0.429 0.431 0.667 1.003 0.667 1.611s-0.237 1.18-0.667 1.608l-19.724 19.724c-0.429 0.429-1.001 0.664-1.611 0.664zM5.331 17.997c-0.252 0-0.488 0.097-0.665 0.276l-3.057 3.059c-0.179 0.179-0.276 0.415-0.277 0.667s0.097 0.488 0.275 0.665l7.724 7.725c0.177 0.176 0.415 0.275 0.668 0.275s0.489-0.097 0.668-0.275l19.723-19.724c0.177-0.177 0.276-0.413 0.276-0.665s-0.097-0.488-0.275-0.665l-3.057-3.059c-0.179-0.179-0.415-0.276-0.668-0.276-0.251 0-0.485 0.096-0.663 0.272l-15.532 15.531c-0.125 0.125-0.293 0.195-0.472 0.195s-0.345-0.069-0.472-0.195l-3.528-3.529c-0.177-0.177-0.413-0.276-0.667-0.276v0z"></path>
</symbol>
<symbol id="icon-arrow-thick-circle-right-2--2" viewBox="0 0 32 32">
<title>arrow-thick-circle-right-2--2</title>
<path d="M16 32.116c-8.823 0-16-7.177-16-16s7.177-16 16-16c8.823 0 16 7.177 16 16s-7.177 16-16 16zM16 1.449c-8.087 0-14.667 6.58-14.667 14.667s6.58 14.667 14.667 14.667 14.667-6.58 14.667-14.667-6.58-14.667-14.667-14.667z"></path>
<path d="M16.667 25.287c-0.713 0-1.383-0.277-1.885-0.78s-0.78-1.172-0.78-1.885c0-0.713 0.277-1.383 0.78-1.885l1.953-1.953h-7.401c-1.471 0-2.667-1.196-2.667-2.667s1.196-2.667 2.667-2.667h7.4l-1.953-1.952c-0.503-0.503-0.78-1.173-0.78-1.885 0-0.713 0.277-1.383 0.78-1.885s1.172-0.78 1.885-0.78c0.713 0 1.383 0.277 1.887 0.78 0 0 7.448 7.448 7.448 7.448 0.252 0.253 0.389 0.588 0.389 0.944s-0.139 0.691-0.391 0.941l-7.445 7.445c-0.503 0.504-1.173 0.781-1.887 0.781zM9.333 14.783c-0.735 0-1.333 0.599-1.333 1.333 0 0.736 0.599 1.333 1.333 1.333h9.009c0.271 0 0.513 0.161 0.616 0.412 0.104 0.249 0.047 0.535-0.145 0.727l-3.091 3.091c-0.252 0.252-0.391 0.587-0.391 0.943s0.139 0.691 0.391 0.943c0.252 0.251 0.587 0.389 0.943 0.389 0.357 0 0.692-0.139 0.943-0.389l7.447-7.447c-0.004-0.004-7.447-7.448-7.447-7.448-0.251-0.252-0.587-0.389-0.944-0.389-0.356 0-0.692 0.139-0.943 0.389-0.249 0.251-0.388 0.585-0.388 0.941s0.139 0.691 0.391 0.943l3.091 3.091c0.192 0.192 0.248 0.477 0.144 0.727-0.103 0.249-0.345 0.411-0.616 0.411h-9.009z"></path>
</symbol>
<symbol id="icon-arrow-right" viewBox="0 0 32 32">
<title>arrow-right</title>
<path d="M17 31c-0.267 0-0.519-0.104-0.707-0.293-0.389-0.389-0.389-1.024 0-1.415l12.293-12.293h-27.587c-0.552 0.001-1-0.447-1-0.999s0.448-1 1-1h27.585l-12.293-12.293c-0.188-0.188-0.292-0.44-0.292-0.707s0.104-0.519 0.293-0.707c0.188-0.189 0.44-0.293 0.707-0.293s0.519 0.104 0.707 0.293l14 14c0.093 0.093 0.167 0.203 0.217 0.327 0.004 0.011 0.009 0.023 0.013 0.035 0.041 0.108 0.063 0.227 0.063 0.345 0 0.116-0.021 0.232-0.063 0.344-0.003 0.008-0.005 0.015-0.008 0.021-0.056 0.139-0.131 0.249-0.224 0.343l-13.999 13.999c-0.188 0.189-0.44 0.293-0.707 0.293z"></path>
</symbol>
<symbol id="icon-arrow-right-1" viewBox="0 0 32 32">
<title>arrow-right-1</title>
<path d="M7.332 32c-0.267 0-0.519-0.104-0.707-0.293-0.389-0.389-0.389-1.024 0-1.415l14.293-14.292-14.293-14.293c-0.189-0.188-0.293-0.44-0.293-0.707s0.104-0.519 0.293-0.707c0.188-0.189 0.44-0.293 0.707-0.293s0.519 0.104 0.707 0.293l14.293 14.293c0.779 0.779 0.78 2.047 0.001 2.825l-14.295 14.295c-0.188 0.189-0.44 0.293-0.707 0.293z"></path>
</symbol>
<symbol id="icon-arrow-right-1--3" viewBox="0 0 32 32">
<title>arrow-right-1--3</title>
<path d="M26 16c0 0.001 0 0.002 0 0.004 0 0.915-0.401 1.737-1.037 2.299l-0.003 0.003-14.869 13.081c-0.425 0.358-0.979 0.576-1.583 0.576-1.36 0-2.463-1.103-2.463-2.463 0-0.715 0.305-1.359 0.792-1.809l0.002-0.002 13.003-11.439c0.070-0.061 0.114-0.151 0.114-0.251s-0.044-0.189-0.113-0.25l-0-0-13.003-11.439c-0.489-0.451-0.794-1.096-0.794-1.811 0-1.36 1.103-2.463 2.463-2.463 0.604 0 1.158 0.218 1.587 0.579l-0.004-0.003 14.864 13.077c0.642 0.567 1.044 1.391 1.045 2.309v0z"></path>
</symbol>
<symbol id="icon-arrow-right-1--2" viewBox="0 0 32 32">
<title>arrow-right-1--2</title>
<path d="M7.532 32c-0.191 0-0.372-0.081-0.499-0.224-0.244-0.276-0.217-0.699 0.057-0.941l16.767-14.835-16.767-14.833c-0.276-0.244-0.301-0.667-0.059-0.941 0.128-0.143 0.309-0.225 0.5-0.225 0.163 0 0.32 0.060 0.441 0.167l16.768 14.835c0.039 0.035 0.075 0.069 0.108 0.107 0.492 0.555 0.443 1.401-0.107 1.888l-16.769 14.837c-0.123 0.108-0.279 0.167-0.441 0.167z"></path>
</symbol>
<symbol id="icon-arrow-rectangle-right" viewBox="0 0 32 32">
<title>arrow-rectangle-right</title>
<path d="M30 0h-28c-1.105 0-2 0.895-2 2v0 28c0 1.105 0.895 2 2 2v0h28c1.105 0 2-0.895 2-2v0-28c0-1.105-0.895-2-2-2v0zM11.489 9.179c-0.29-0.299-0.468-0.708-0.468-1.158 0-0.92 0.746-1.667 1.667-1.667 0.45 0 0.858 0.178 1.158 0.468l7.529 7.529c0.421 0.422 0.682 1.005 0.682 1.649s-0.26 1.227-0.682 1.649l-7.529 7.529c-0.299 0.289-0.708 0.468-1.158 0.468-0.92 0-1.667-0.746-1.667-1.667 0-0.45 0.179-0.859 0.469-1.159l-0 0 6.585-6.585c0.061-0.060 0.098-0.144 0.098-0.236s-0.037-0.176-0.098-0.236v0z"></path>
</symbol>
<symbol id="icon-arrow-rectangle-right--3" viewBox="0 0 32 32">
<title>arrow-rectangle-right--3</title>
<path d="M30 0h-28c-1.105 0-2 0.895-2 2v0 28c0 1.105 0.895 2 2 2v0h28c1.105 0 2-0.895 2-2v0-28c0-1.105-0.895-2-2-2v0zM11.489 9.179c-0.29-0.299-0.468-0.708-0.468-1.158 0-0.92 0.746-1.667 1.667-1.667 0.45 0 0.858 0.178 1.158 0.468l7.529 7.529c0.421 0.422 0.682 1.005 0.682 1.649s-0.26 1.227-0.682 1.649l-7.529 7.529c-0.299 0.289-0.708 0.468-1.158 0.468-0.92 0-1.667-0.746-1.667-1.667 0-0.45 0.179-0.859 0.469-1.159l-0 0 6.585-6.585c0.061-0.060 0.098-0.144 0.098-0.236s-0.037-0.176-0.098-0.236v0z"></path>
</symbol>
<symbol id="icon-arrow-rectangle-right--2" viewBox="0 0 32 32">
<title>arrow-rectangle-right--2</title>
<path d="M3.667 32c-2.021 0-3.667-1.645-3.667-3.667v-24.667c0-2.021 1.645-3.667 3.667-3.667h24.667c2.021 0 3.667 1.645 3.667 3.667v24.667c0 2.021-1.645 3.667-3.667 3.667h-24.667zM3.667 2c-0.919 0-1.667 0.748-1.667 1.667v24.667c0 0.919 0.748 1.667 1.667 1.667h24.667c0.919 0 1.667-0.748 1.667-1.667v-24.667c0-0.919-0.748-1.667-1.667-1.667h-24.667z"></path>
<path d="M12 24c-0.311 0-0.599-0.14-0.789-0.385-0.164-0.211-0.236-0.473-0.203-0.739s0.168-0.501 0.379-0.665l7.985-6.211-7.985-6.211c-0.436-0.339-0.515-0.968-0.176-1.404 0.191-0.244 0.477-0.385 0.789-0.385 0.221 0 0.439 0.075 0.613 0.211l7.985 6.211c0.871 0.677 1.028 1.936 0.351 2.807-0.103 0.132-0.22 0.249-0.349 0.349l-7.987 6.211c-0.175 0.137-0.392 0.212-0.613 0.212z"></path>
</symbol>
<symbol id="icon-arrow-down-1" viewBox="0 0 32 32">
<title>arrow-down-1</title>
<path d="M16 25.332c-0.533 0-1.035-0.208-1.412-0.584l-14.295-14.293c-0.189-0.189-0.293-0.44-0.293-0.708 0-0.267 0.104-0.519 0.293-0.707 0.189-0.189 0.44-0.293 0.707-0.293s0.519 0.104 0.707 0.293l14.293 14.292 14.293-14.292c0.189-0.189 0.44-0.293 0.707-0.293s0.519 0.104 0.707 0.293c0.189 0.189 0.293 0.44 0.293 0.707s-0.104 0.519-0.293 0.707l-14.293 14.293c-0.376 0.377-0.879 0.585-1.413 0.585z"></path>
</symbol>
<symbol id="icon-arrow-down-1--3" viewBox="0 0 32 32">
<title>arrow-down-1--3</title>
<path d="M16 26c-0.001 0-0.002 0-0.004 0-0.915 0-1.737-0.401-2.299-1.037l-0.003-0.003-13.081-14.869c-0.358-0.425-0.576-0.979-0.576-1.583 0-1.36 1.103-2.463 2.463-2.463 0.715 0 1.359 0.305 1.809 0.792l0.002 0.002 11.439 13.003c0.061 0.070 0.151 0.114 0.251 0.114s0.189-0.044 0.25-0.113l0-0 11.439-13.003c0.455-0.539 1.131-0.88 1.887-0.88 1.36 0 2.463 1.103 2.463 2.463 0 0.645-0.248 1.232-0.653 1.671l0.002-0.002-13.077 14.864c-0.567 0.642-1.391 1.044-2.309 1.045h-0z"></path>
</symbol>
<symbol id="icon-arrow-down-1--2" viewBox="0 0 32 32">
<title>arrow-down-1--2</title>
<path d="M16.053 25.156c-0.381 0-0.745-0.164-0.999-0.448l-14.832-16.765c-0.244-0.275-0.219-0.697 0.057-0.94 0.123-0.108 0.279-0.168 0.441-0.168 0.191 0 0.373 0.083 0.5 0.225l14.833 16.764 14.835-16.764c0.127-0.143 0.308-0.225 0.5-0.225 0.163 0 0.32 0.060 0.441 0.167 0.276 0.244 0.301 0.667 0.057 0.941l-14.835 16.765c-0.035 0.040-0.072 0.076-0.111 0.111-0.248 0.219-0.563 0.337-0.889 0.337z"></path>
</symbol>
<symbol id="icon-arrow-circle-right" viewBox="0 0 32 32">
<title>arrow-circle-right</title>
<path d="M16 32c-8.823 0-16-7.177-16-16s7.177-16 16-16c8.823 0 16 7.177 16 16s-7.177 16-16 16zM16 1.333c-8.087 0-14.667 6.58-14.667 14.667s6.58 14.667 14.667 14.667 14.667-6.58 14.667-14.667-6.58-14.667-14.667-14.667z"></path>
<path d="M11.333 25.333c-0.209 0-0.403-0.096-0.531-0.263-0.108-0.141-0.155-0.316-0.131-0.493 0.024-0.176 0.115-0.333 0.256-0.441l10.659-8.133-10.657-8.14c-0.292-0.223-0.349-0.641-0.125-0.933 0.127-0.167 0.32-0.263 0.529-0.263 0.147 0 0.287 0.048 0.404 0.137l10.659 8.14c0.095 0.072 0.179 0.156 0.251 0.252 0.216 0.283 0.308 0.633 0.261 0.985-0.048 0.353-0.231 0.667-0.513 0.883l-10.657 8.133c-0.116 0.088-0.256 0.136-0.404 0.136z"></path>
</symbol>
<symbol id="icon-arrow-circle-right--2" viewBox="0 0 32 32">
<title>arrow-circle-right--2</title>
<path d="M16 32c-8.823 0-16-7.177-16-16s7.177-16 16-16c8.823 0 16 7.177 16 16s-7.177 16-16 16zM16 2c-7.72 0-14 6.28-14 14s6.28 14 14 14c7.72 0 14-6.28 14-14s-6.28-14-14-14z"></path>
<path d="M12 24c-0.344 0-0.66-0.173-0.844-0.463-0.144-0.225-0.191-0.493-0.132-0.755 0.057-0.261 0.215-0.484 0.44-0.627l9.673-6.156-9.675-6.156c-0.225-0.144-0.381-0.367-0.44-0.627s-0.009-0.529 0.133-0.755c0.185-0.289 0.501-0.463 0.844-0.463 0.189 0 0.375 0.053 0.536 0.156l9.676 6.156c0.248 0.159 0.453 0.364 0.611 0.611 0.288 0.452 0.383 0.987 0.268 1.509s-0.427 0.968-0.877 1.256l-9.676 6.156c-0.16 0.101-0.347 0.156-0.537 0.156z"></path>
</symbol>
</defs>
</svg>
