<?xml version="1.0" encoding="utf-8"?>
<!-- Generator: Adobe Illustrator 22.1.0, SVG Export Plug-In . SVG Version: 6.00 Build 0)  -->
<svg version="1.1" id="Light" xmlns="http://www.w3.org/2000/svg" xmlns:xlink="http://www.w3.org/1999/xlink" x="0px" y="0px"
	 viewBox="0 0 24 24" style="enable-background:new 0 0 24 24;" xml:space="preserve">
<g>
	<title>arrow-thick-circle-right-2</title>
	<path d="M12,24.087c-6.617,0-12-5.383-12-12c0-6.617,5.383-12,12-12c6.617,0,12,5.383,12,12C24,18.704,18.617,24.087,12,24.087z
		 M12,1.087c-6.065,0-11,4.935-11,11s4.935,11,11,11s11-4.935,11-11S18.065,1.087,12,1.087z"/>
	<path d="M12.5,18.965c-0.535,0-1.037-0.208-1.414-0.585c-0.377-0.377-0.585-0.879-0.585-1.414c0-0.535,0.208-1.037,0.585-1.414
		l1.465-1.465H7c-1.103,0-2-0.897-2-2s0.897-2,2-2h5.55l-1.465-1.464c-0.377-0.377-0.585-0.88-0.585-1.414
		c0-0.535,0.208-1.037,0.585-1.414c0.377-0.377,0.879-0.585,1.414-0.585c0.535,0,1.037,0.208,1.415,0.585
		c0,0,5.586,5.586,5.586,5.586c0.189,0.19,0.292,0.441,0.292,0.708c0,0.267-0.104,0.518-0.293,0.706l-5.584,5.584
		C13.538,18.757,13.035,18.965,12.5,18.965z M7,11.087c-0.551,0-1,0.449-1,1c0,0.552,0.449,1,1,1h6.757
		c0.203,0,0.385,0.121,0.462,0.309c0.078,0.187,0.035,0.401-0.109,0.545l-2.318,2.318c-0.189,0.189-0.293,0.44-0.293,0.707
		c0,0.267,0.104,0.518,0.293,0.707c0.189,0.188,0.44,0.292,0.707,0.292c0.268,0,0.519-0.104,0.707-0.292l5.585-5.585
		c-0.003-0.003-5.585-5.586-5.585-5.586c-0.188-0.189-0.44-0.292-0.708-0.292c-0.267,0-0.519,0.104-0.707,0.292
		C11.604,6.69,11.5,6.941,11.5,7.208c0,0.267,0.104,0.518,0.293,0.707l2.318,2.318c0.144,0.144,0.186,0.358,0.108,0.545
		c-0.077,0.187-0.259,0.308-0.462,0.308H7z"/>
</g>
</svg>
