<?xml version="1.0" encoding="utf-8"?>
<!-- Generator: Adobe Illustrator 22.1.0, SVG Export Plug-In . SVG Version: 6.00 Build 0)  -->
<svg version="1.1" id="Light" xmlns="http://www.w3.org/2000/svg" xmlns:xlink="http://www.w3.org/1999/xlink" x="0px" y="0px"
	 viewBox="0 0 24 24" style="enable-background:new 0 0 24 24;" xml:space="preserve">
<g>
	<title>arrow-circle-right</title>
	<path d="M12,24C5.383,24,0,18.617,0,12C0,5.383,5.383,0,12,0c6.617,0,12,5.383,12,12C24,18.617,18.617,24,12,24z M12,1
		C5.935,1,1,5.935,1,12s4.935,11,11,11s11-4.935,11-11S18.065,1,12,1z"/>
	<path d="M8.5,19c-0.157,0-0.302-0.072-0.398-0.197c-0.081-0.106-0.116-0.237-0.098-0.37c0.018-0.132,0.086-0.25,0.192-0.331
		l7.994-6.1L8.197,5.897C7.978,5.73,7.935,5.416,8.103,5.197C8.198,5.072,8.343,5,8.5,5c0.11,0,0.215,0.036,0.303,0.103l7.994,6.105
		c0.071,0.054,0.134,0.117,0.188,0.189c0.162,0.212,0.231,0.475,0.196,0.739c-0.036,0.265-0.173,0.5-0.385,0.662l-7.993,6.1
		C8.716,18.964,8.611,19,8.5,19z"/>
</g>
</svg>
