<?xml version="1.0" encoding="utf-8"?>
<!-- Generator: Adobe Illustrator 22.1.0, SVG Export Plug-In . SVG Version: 6.00 Build 0)  -->
<svg version="1.1" id="Layer_1" xmlns="http://www.w3.org/2000/svg" xmlns:xlink="http://www.w3.org/1999/xlink" x="0px" y="0px"
	 viewBox="0 0 24 24" style="enable-background:new 0 0 24 24;" xml:space="preserve">
<g>
	<title>earth-pin-1</title>
	<path d="M12.002,23.728c-0.361,0-0.695-0.195-0.872-0.509c-0.216-0.383-0.414-0.737-0.596-1.064
		c-1.419-2.541-1.897-3.397-3.275-4.192C4.32,16.271,2.496,13.112,2.5,9.721c0.006-5.233,4.267-9.49,9.5-9.49
		c2.548,0.003,4.933,0.994,6.725,2.79s2.778,4.183,2.775,6.72c0,3.386-1.823,6.537-4.759,8.223c-1.375,0.794-1.854,1.65-3.272,4.19
		c-0.183,0.327-0.38,0.682-0.597,1.065c-0.09,0.16-0.222,0.291-0.381,0.38C12.343,23.683,12.173,23.728,12.002,23.728z M12,1.231
		c-4.682,0-8.495,3.809-8.5,8.491c-0.003,3.035,1.628,5.86,4.258,7.375c1.618,0.933,2.171,1.924,3.649,4.571
		c0.182,0.326,0.379,0.679,0.594,1.061c0.204-0.363,0.392-0.698,0.566-1.01l0.029-0.051c1.478-2.647,2.031-3.637,3.646-4.569
		c2.627-1.509,4.259-4.328,4.258-7.357c0.002-2.271-0.879-4.406-2.483-6.014c-1.603-1.607-3.737-2.494-6.007-2.496L12,0.981V1.231z"
		/>
	<path d="M12,16.241c-2.06,0-4.019-0.996-5.243-2.664c-0.016-0.019-0.027-0.036-0.032-0.045C5.924,12.421,5.5,11.109,5.5,9.741
		c0-0.933,0.196-1.836,0.583-2.686c0-0.003,0.01-0.025,0.022-0.047C7.161,4.725,9.477,3.241,12,3.241
		c1.575,0,3.096,0.574,4.284,1.617c0.011,0.008,0.028,0.022,0.045,0.039c1.38,1.235,2.172,3,2.172,4.844
		C18.5,13.325,15.584,16.241,12,16.241z M8.231,13.741c1.017,0.959,2.362,1.5,3.769,1.5c2.285,0,4.302-1.393,5.123-3.5H17
		c-1.103,0-2-0.897-2-2c0-0.276-0.224-0.5-0.5-0.5c-0.827,0-1.5-0.673-1.5-1.5c-0.009-0.79,0.292-1.539,0.848-2.106
		c0.266-0.272,0.581-0.489,0.926-0.641C13.933,4.5,12.984,4.241,12,4.241c-1.866,0-3.595,0.948-4.608,2.5H7.5c1.103,0,2,0.897,2,2
		c0,0.276,0.224,0.5,0.5,0.5c0.827,0,1.5,0.673,1.5,1.5c0,1.654-1.346,3-3,3H8.231z M8.5,12.741c1.103,0,2-0.897,2-2
		c0-0.276-0.224-0.5-0.5-0.5c-0.827,0-1.5-0.673-1.5-1.5c0-0.551-0.449-1-1-1H6.877C6.627,8.378,6.5,9.05,6.5,9.741
		c0,1.071,0.308,2.106,0.893,3H8.5z M15.785,5.754C14.765,5.858,13.989,6.709,14,7.735c0,0.28,0.224,0.505,0.5,0.505
		c0.827,0,1.5,0.673,1.5,1.5c0,0.551,0.448,1,1,1h0.407c0.062-0.332,0.093-0.667,0.093-1C17.5,8.238,16.876,6.791,15.785,5.754z"/>
</g>
</svg>
