<?xml version="1.0" encoding="utf-8"?>
<!-- Generator: Adobe Illustrator 22.1.0, SVG Export Plug-In . SVG Version: 6.00 Build 0)  -->
<svg version="1.1" id="Layer_1" xmlns="http://www.w3.org/2000/svg" xmlns:xlink="http://www.w3.org/1999/xlink" x="0px" y="0px"
	 viewBox="0 0 24 24" style="enable-background:new 0 0 24 24;" xml:space="preserve">
<title>pin-1</title>
<g>
	<path d="M12.25,24c-0.352,0-0.652-0.24-0.731-0.583c-0.28-1.222-1.216-4.618-2.18-5.648c-0.268-0.286-0.547-0.574-0.831-0.866
		C6.395,14.726,4,12.258,4,8.25C4,3.701,7.701,0,12.25,0s8.25,3.701,8.25,8.25c0,4.002-2.39,6.467-4.499,8.641
		c-0.291,0.301-0.569,0.586-0.835,0.871c-0.968,1.035-1.906,4.433-2.186,5.655C12.902,23.76,12.602,24,12.25,24z M12.25,1.5
		C8.528,1.5,5.5,4.528,5.5,8.25c0,3.4,2.076,5.539,4.084,7.608c0.296,0.305,0.579,0.596,0.85,0.886
		c0.723,0.773,1.348,2.293,1.816,3.729c0.469-1.437,1.096-2.96,1.82-3.735c0.272-0.292,0.556-0.584,0.844-0.882
		C16.928,13.781,19,11.644,19,8.25C19,4.528,15.972,1.5,12.25,1.5z"/>
	<path d="M12.25,12c-2.068,0-3.75-1.682-3.75-3.75s1.682-3.75,3.75-3.75C14.318,4.5,16,6.182,16,8.25S14.318,12,12.25,12z M12.25,6
		C11.009,6,10,7.009,10,8.25s1.009,2.25,2.25,2.25c1.241,0,2.25-1.009,2.25-2.25S13.491,6,12.25,6z"/>
</g>
</svg>
